<?xml version="1.0" standalone="no"?>
<!DOCTYPE svg PUBLIC "-//W3C//DTD SVG 1.1//EN" "http://www.w3.org/Graphics/SVG/1.1/DTD/svg11.dtd" >
<svg xmlns="http://www.w3.org/2000/svg">
<metadata></metadata>
<defs>
<font id="pf_agora_slab_proultrablack" horiz-adv-x="1355" >
<font-face units-per-em="2048" ascent="1536" descent="-512" />
<missing-glyph horiz-adv-x="692" />
<glyph unicode="&#xfb01;" horiz-adv-x="1687" d="M72 723v256l153 47v64q0 68 14.5 147.5t68.5 150t159.5 117.5t290.5 47q33 0 88 -2t123.5 -10t147.5 -21.5t161 -37.5l-59 -328q-121 18 -195 25.5t-139 7.5q-90 0 -139.5 -29t-49.5 -108v-35h770l2 -701h138v-284q-72 -29 -161 -43.5t-161 -14.5q-88 0 -146.5 17.5 t-94 51.5t-50 83t-14.5 113l-2 487h-281v-430h121v-293h-708v293h114v430h-151z" />
<glyph unicode="&#xfb02;" horiz-adv-x="1689" d="M72 723v256l153 47v64q0 68 14.5 147.5t68.5 150t159.5 117.5t290.5 47q47 0 134 -5t198 -23l397 37v-1268h121v-293h-707v293h98v887q-33 4 -59.5 5t-54.5 1q-90 0 -139.5 -29t-49.5 -108v-35h211v-291h-211v-430h101v-293h-688v293h114v430h-151z" />
<glyph horiz-adv-x="0" />
<glyph horiz-adv-x="682" />
<glyph unicode=" "  horiz-adv-x="692" />
<glyph unicode="&#x09;" horiz-adv-x="692" />
<glyph unicode="&#xa0;" horiz-adv-x="692" />
<glyph unicode="!" horiz-adv-x="772" d="M162 176q0 43 16.5 82t46 67.5t70.5 46t92 17.5q104 0 164.5 -61.5t60.5 -151.5q0 -41 -16 -79t-46 -66.5t-71 -46t-92 -17.5q-53 0 -95 17.5t-70.5 46t-44 66.5t-15.5 79zM166 1038v437h440v-437l-41 -567h-358z" />
<glyph unicode="&#x22;" horiz-adv-x="1054" d="M129 1423h375l-53 -624h-273zM563 1423h375l-53 -624h-271z" />
<glyph unicode="#" horiz-adv-x="1382" d="M158 616h202l41 142h-178l-4 200h232l96 375h239l-92 -375h121l98 375h238l-92 -375h164l4 -200h-219l-39 -142h186l4 -206h-235l-103 -412h-241l98 412h-121l-102 -412h-244l100 412h-151zM606 616h121l39 142h-121z" />
<glyph unicode="$" d="M135 956q0 180 104.5 297t297.5 142v149h102v-1704h-102v180q-92 10 -188.5 31t-182.5 55v383h246v-133q18 -8 52 -14t73 -10v235q-78 23 -151 54.5t-128 77.5t-89 108.5t-34 148.5zM487 1001q0 -23 10.5 -39t39.5 -26v143q-50 -23 -50 -78zM705 -160v1704h102v-151 q80 -8 160 -27.5t145 -50.5v-365h-240v123q-23 8 -65 19v-236q70 -20 143.5 -50t134 -76t98.5 -112.5t38 -160.5q0 -176 -108.5 -289t-305.5 -143v-185h-102zM807 350q27 10 37 28.5t10 43.5q0 51 -47 72v-144z" />
<glyph unicode="%" horiz-adv-x="2068" d="M20 961q0 92 23 169.5t73 134t130 88t192 31.5q113 0 192 -31.5t129 -88t72.5 -134t22.5 -169.5t-22.5 -170t-72.5 -134.5t-129 -89t-192 -32.5t-192.5 32.5t-129.5 89t-73 134t-23 170.5zM348 961q0 -92 17.5 -145.5t72.5 -53.5q53 0 71.5 52.5t18.5 146.5q0 90 -18 144 t-72 54q-55 0 -72.5 -57.5t-17.5 -140.5zM551 -37l719 1512h266l-721 -1512h-264zM1198 412q0 92 22.5 169.5t72.5 134t130 88.5t193 32t191.5 -32t129 -88.5t73 -134t22.5 -169.5t-22.5 -170t-73 -134.5t-129 -89t-191.5 -32.5t-193 32.5t-130 89t-72.5 134t-22.5 170.5z M1526 412q0 -92 17.5 -145.5t72.5 -53.5q53 0 71.5 52.5t18.5 146.5q0 90 -18.5 144t-71.5 54q-55 0 -72.5 -57t-17.5 -141z" />
<glyph unicode="&#x26;" horiz-adv-x="1832" d="M150 393q0 55 14 113.5t48 115t90 107.5t142 94q-43 57 -64.5 129t-21.5 140q0 39 15.5 97t59.5 111.5t123 92.5t208 39q141 0 226 -41t131 -95.5t60.5 -108.5t14.5 -79q0 -66 -28.5 -121t-69.5 -101t-89 -81t-85 -60q33 -35 62.5 -68.5t64.5 -72.5q35 -33 63.5 -65.5 t63.5 -63.5q20 23 39.5 55.5t31.5 57.5h-82v272h568v-272h-111q-29 -78 -77 -163t-124 -169q31 -23 66 -47.5t71.5 -48t72.5 -45t65 -35.5l-154 -250q-94 41 -198.5 103.5t-188.5 127.5q-182 -102 -446 -102q-121 0 -223.5 27.5t-177 83t-117.5 136.5t-43 187zM565 424 q0 -74 58.5 -116t156.5 -42q61 0 121 19l-104 108q-43 47 -82 89t-78 89q-31 -23 -51.5 -61.5t-20.5 -85.5zM711 1106q0 -23 14 -62.5t37 -74.5q16 10 36.5 24.5t38 31.5t30 37.5t12.5 43.5q0 41 -25 59.5t-63 18.5q-35 0 -57.5 -22.5t-22.5 -55.5z" />
<glyph unicode="'" horiz-adv-x="645" d="M129 1423h375l-53 -624h-273z" />
<glyph unicode="(" horiz-adv-x="839" d="M135 555q0 115 26.5 233.5t78 234.5t127 226.5t174.5 208.5l213 -133q-31 -43 -70 -110.5t-75 -160.5t-59.5 -214t-23.5 -269q0 -160 23.5 -287.5t58.5 -223t74 -161t70 -102.5l-205 -135q-203 199 -307.5 431.5t-104.5 461.5z" />
<glyph unicode=")" horiz-adv-x="839" d="M98 1327l213 133q98 -98 174 -208.5t127.5 -226.5t78 -234.5t26.5 -233.5q0 -229 -104.5 -461.5t-307.5 -431.5l-205 135q31 37 69 102.5t72.5 161t58.5 223.5t24 287q0 147 -24 268.5t-58.5 214.5t-73.5 160.5t-70 110.5z" />
<glyph unicode="*" horiz-adv-x="972" d="M78 1042l90 287l229 -133l-51 252h301l-53 -250l233 131l91 -287l-265 -36l191 -175l-238 -172l-108 236l-111 -236l-240 172l193 179z" />
<glyph unicode="+" d="M246 506v252h338v352h260v-352h336v-252h-336v-359h-260v359h-338z" />
<glyph unicode="," horiz-adv-x="714" d="M113 -170q63 49 100 96t47 117q-78 10 -112.5 59t-34.5 125q0 43 16 81t47 66.5t74 46t96 17.5q63 0 108.5 -23.5t72 -60.5t39 -84t12.5 -94q0 -78 -31 -154.5t-80 -142t-111.5 -119t-126.5 -84.5z" />
<glyph unicode="-" horiz-adv-x="894" d="M139 412v309h617v-309h-617z" />
<glyph unicode="." horiz-adv-x="714" d="M125 205q0 47 18.5 89t50 73.5t74.5 50t90 18.5t89 -18.5t73 -50t49.5 -73.5t18.5 -89t-18.5 -89t-49.5 -73t-72.5 -49.5t-89.5 -18.5q-47 0 -90 18.5t-74.5 49.5t-50 73t-18.5 89z" />
<glyph unicode="/" horiz-adv-x="888" d="M-4 -84l539 1548h346l-541 -1548h-344z" />
<glyph unicode="0" d="M37 688q0 154 34.5 283t111.5 222t199 146.5t296 53.5q172 0 294 -53.5t198.5 -146.5t111.5 -222t35 -283t-35 -283t-111.5 -224t-198.5 -148t-294 -53q-174 0 -296 53t-199 148t-111.5 224.5t-34.5 282.5zM526 688q0 -84 7.5 -153.5t24.5 -118.5t46 -77t74 -28 q43 0 71.5 27t46 76t24.5 118.5t7 155.5q0 82 -7 149.5t-24.5 117t-46 77t-71.5 27.5q-45 0 -74 -30t-46 -81t-24.5 -118.5t-7.5 -141.5z" />
<glyph unicode="1" d="M119 1243l389 133h418v-1081h293v-295h-1055v295h278v715q-66 -6 -140.5 -11.5t-139.5 -11.5z" />
<glyph unicode="2" d="M78 0v264q119 88 233.5 175t205.5 170t146.5 161t55.5 148q0 20 -5 40.5t-20.5 36t-45.5 25.5t-79 10q-57 0 -146 -24.5t-187 -77.5l-136 293q135 84 275.5 127t281.5 43q131 0 233.5 -32t172.5 -91.5t106.5 -142.5t36.5 -183q0 -94 -42 -181t-109.5 -167t-152.5 -153.5 t-171 -137.5l2 -10h201v108h334v-401h-1190z" />
<glyph unicode="3" d="M106 94l103 297q119 -41 201 -53t153 -12q104 0 156.5 41t52.5 98q0 25 -7 49.5t-29.5 45t-68.5 33.5t-122 13h-34.5t-39.5 -2l-41 209l291 266h-213v-102h-330v399h1018l51 -246l-301 -282q164 -37 242 -137.5t78 -247.5q0 -121 -47.5 -212t-130 -151.5t-198.5 -91.5 t-253 -31q-31 0 -94.5 4.5t-139 16.5t-154.5 35.5t-143 60.5z" />
<glyph unicode="4" d="M55 391v250l525 735h532v-686h201v-299h-201v-98h117v-293h-692v293h102v98h-584zM475 690h166l-2 225h-10z" />
<glyph unicode="5" d="M104 96l111 314q119 -41 200 -56.5t152 -15.5q90 0 149.5 37t59.5 106q0 76 -57.5 106.5t-147.5 30.5q-76 0 -182 -40l-215 94l68 704h940v-395h-346v98h-224l-16 -157q29 4 55.5 6t46.5 2q268 0 417 -119t149 -334q0 -121 -47.5 -214t-130 -155.5t-198.5 -95t-253 -32.5 q-31 0 -94.5 4t-139 16t-154.5 35.5t-143 60.5z" />
<glyph unicode="6" d="M78 608q0 154 33.5 295t115.5 249t218.5 172.5t340.5 64.5q106 0 186.5 -12.5t141.5 -28.5l-55 -316q-76 16 -136.5 21.5t-95.5 5.5q-129 0 -193.5 -60.5t-76.5 -164.5l8 -9q78 41 149.5 51.5t119.5 10.5q86 0 164.5 -28t139 -82t96.5 -134t36 -184q0 -121 -43 -211 t-120 -149.5t-180.5 -90.5t-226.5 -31q-164 0 -281.5 47.5t-193 130.5t-111.5 198.5t-36 254.5zM565 508q0 -84 30 -134t101 -50q49 0 82 34.5t33 100.5q0 49 -20.5 88t-90.5 39q-29 0 -63.5 -13.5t-71.5 -33.5v-31z" />
<glyph unicode="7" d="M174 909v467h1040v-276l-514 -1100h-464l495 1079h-209v-170h-348z" />
<glyph unicode="8" d="M70 393q0 39 11 84t35.5 92t65.5 93.5t101 85.5q-68 47 -104 106t-36 145q0 88 41 162t114 127t173 82t219 29q92 0 189.5 -20.5t178.5 -66.5t132 -121t51 -181q0 -61 -32.5 -141.5t-121.5 -149.5q100 -53 149.5 -130t49.5 -190q0 -90 -44 -166.5t-124 -132t-192.5 -87 t-249.5 -31.5q-139 0 -252 27.5t-191.5 80.5t-120.5 130t-42 173zM551 430q0 -39 33 -69.5t96 -30.5q33 0 55.5 11t35.5 26.5t20.5 32t7.5 26.5q2 18 -2 36.5t-22.5 37t-53.5 38t-94 40.5q-45 -41 -60.5 -75t-15.5 -73zM580 993q0 -25 13 -42t36.5 -31.5t55.5 -27.5t67 -28 q37 37 50 69t13 56q0 41 -29.5 66.5t-93.5 25.5q-53 0 -82.5 -28.5t-29.5 -59.5z" />
<glyph unicode="9" d="M80 909q0 121 44 211t121 150.5t182 90.5t226 30q162 0 280 -46.5t192.5 -130.5t110.5 -200.5t36 -255.5q0 -154 -34 -295t-116 -250t-218 -173.5t-341 -64.5q-106 0 -184 13.5t-141 31.5l51 312q70 -12 131 -18.5t104 -6.5q129 0 192.5 61.5t78.5 166.5l-11 6 q-74 -39 -148.5 -51.5t-117.5 -12.5q-92 0 -173 29t-139.5 84t-92 136t-33.5 183zM539 909q0 -25 4 -47t16 -40.5t33.5 -30t56.5 -11.5q29 0 65 13.5t70 35.5q0 4 1 8.5t1 20.5q0 86 -29.5 137.5t-103.5 51.5q-49 0 -81.5 -36t-32.5 -102z" />
<glyph unicode=":" horiz-adv-x="714" d="M125 205q0 47 18.5 89t50 73.5t74.5 50t90 18.5t89 -18.5t73 -50t49.5 -73.5t18.5 -89t-18.5 -89t-49.5 -73t-72.5 -49.5t-89.5 -18.5q-47 0 -90 18.5t-74.5 49.5t-50 73t-18.5 89zM125 758q0 47 18.5 90t50 74.5t74.5 50t90 18.5t89 -18.5t73 -50t49.5 -74.5t18.5 -90 t-18.5 -89t-49.5 -73t-72.5 -48.5t-89.5 -17.5q-47 0 -90 17.5t-74.5 48.5t-50 73t-18.5 89z" />
<glyph unicode=";" horiz-adv-x="714" d="M125 -170q66 49 101.5 96t45.5 117q-78 10 -112.5 59t-34.5 125q0 43 16.5 81t46 66.5t72.5 46t96 17.5q63 0 108.5 -23.5t73 -60.5t40 -84t12.5 -94q0 -78 -31 -154.5t-80 -142t-111.5 -119t-125.5 -84.5zM125 758q0 47 18.5 90t50 74.5t74.5 50t90 18.5t89 -18.5 t73 -50t49.5 -74.5t18.5 -90t-18.5 -89t-49.5 -73t-72.5 -48.5t-89.5 -17.5q-47 0 -90 17.5t-74.5 48.5t-50 73t-18.5 89z" />
<glyph unicode="&#x3c;" d="M137 508v217l1071 502v-314l-678 -295q170 -74 340 -149.5t338 -146.5v-310z" />
<glyph unicode="=" d="M207 299v242h942v-242h-942zM207 682v244h942v-244h-942z" />
<glyph unicode="&#x3e;" d="M139 12v310l676 296q-168 74 -338 147t-338 148v314l1071 -502v-217z" />
<glyph unicode="?" horiz-adv-x="1202" d="M98 985v391q156 59 289 76.5t231 17.5q127 0 225.5 -30.5t165 -86t100.5 -132t34 -168.5q0 -74 -28 -132.5t-71 -107.5t-91 -92t-91 -84t-70.5 -84t-27.5 -94v-29h-391v98q0 106 40 174t89 118t89 93t40 101q0 51 -35 82.5t-104 31.5q-20 0 -39 -1t-37 -3l-2 -139h-316z M367 172q0 43 17 81t47 66.5t70 45t87 16.5q45 0 86 -16.5t70.5 -44t47 -66.5t17.5 -82q0 -41 -17.5 -78t-47 -65.5t-70.5 -45t-86 -16.5q-47 0 -87 16.5t-70 45t-47 65.5t-17 78z" />
<glyph unicode="@" horiz-adv-x="2039" d="M186 694q0 168 64.5 312.5t180.5 250t276 165t348 59.5q184 0 328.5 -50.5t246 -142.5t154.5 -223t53 -291q0 -104 -34 -188t-95 -142.5t-146 -90t-190 -31.5q-39 0 -83 9t-84 27.5t-70.5 48t-42.5 72.5q-53 -68 -123 -93.5t-117 -25.5q-74 0 -119 23t-70.5 54.5 t-35 69.5t-9.5 68q0 25 5.5 56t26 59.5t59.5 50t104 31.5l240 27v12q0 35 -13.5 51.5t-76.5 16.5q-49 0 -99.5 -7.5t-95.5 -17.5l-41 190q68 27 147.5 41.5t165.5 14.5q68 0 127.5 -11.5t104.5 -40t70.5 -75.5t25.5 -117v-270q0 -14 14.5 -31.5t61.5 -17.5q29 0 56.5 11 t49 36.5t34.5 66.5t13 101q0 111 -34.5 204t-104 159.5t-171 104t-232.5 37.5q-135 0 -250 -43t-199 -117.5t-132 -177t-48 -219.5q0 -121 43 -224t120 -178t183.5 -117t235.5 -42q55 0 128.5 10.5t178.5 43.5l78 -193q-96 -53 -201 -69.5t-188 -16.5q-203 0 -355.5 59.5 t-255 165t-155 247.5t-52.5 308zM956 618q0 -27 10.5 -43t34.5 -16q29 0 52 19v100l-62 -12q-20 -6 -27.5 -20.5t-7.5 -27.5z" />
<glyph unicode="A" horiz-adv-x="1744" d="M41 0v305h109l436 1114h608l399 -1114h111v-305h-715v305h109l-29 92h-428l-31 -92h115v-305h-684zM741 682h240l-43 135l-66 227h-8l-73 -223z" />
<glyph unicode="B" horiz-adv-x="1634" d="M92 0v305h154v811h-154v303h950q119 0 206 -28.5t145.5 -81t87 -126t28.5 -161.5q0 -23 -8 -58.5t-26.5 -74.5t-48 -76t-74.5 -61v-7q63 -29 103 -71.5t61.5 -88.5t28.5 -89t7 -74q0 -96 -36.5 -174t-104.5 -133.5t-165 -85t-220 -29.5h-934zM743 305h146q66 0 101.5 38 t35.5 97t-32.5 101.5t-104.5 42.5h-146v-279zM743 860h131q55 0 87 37t32 96q0 55 -29.5 89t-89.5 34h-131v-256z" />
<glyph unicode="C" horiz-adv-x="1460" d="M102 711q0 143 33 277t120 237.5t241.5 166t400.5 62.5q109 0 209 -14.5t201 -42.5v-512h-338v192q-18 4 -32.5 5t-31.5 1q-80 0 -133 -25.5t-85 -72.5t-45 -112.5t-13 -145.5q0 -123 25.5 -194.5t72.5 -108.5t113.5 -46t148.5 -9q23 0 62 3t85 8t92 12t81 14l69 -345 q-113 -43 -251 -64.5t-263 -21.5q-236 0 -384 63.5t-232 167t-115 235.5t-31 270z" />
<glyph unicode="D" horiz-adv-x="1716" d="M92 0v305h160v811h-150v303h799q211 0 349.5 -56t219 -152.5t112.5 -225.5t32 -272q0 -139 -37 -268.5t-121 -227.5t-220 -157.5t-335 -59.5h-809zM750 305h102q72 0 117 35t71.5 92t35.5 130t9 149q0 78 -10 151.5t-37.5 130t-77 90t-124.5 33.5h-86v-811z" />
<glyph unicode="E" horiz-adv-x="1589" d="M92 0v305h152v811h-152v303h1399v-555h-334v252h-416v-252l314 6v-295l-314 7v-277h433v277h333v-582h-1415z" />
<glyph unicode="F" horiz-adv-x="1576" d="M92 0v305h156v811h-156v303h1403v-555h-334v252h-418v-252l314 6v-295l-314 7v-277h185v-305h-836z" />
<glyph unicode="G" horiz-adv-x="1607" d="M102 711q0 137 33 271t122 238.5t246.5 169t409.5 64.5q109 0 225.5 -14.5t217.5 -42.5v-496h-340v186q-43 6 -84 7q-166 0 -234.5 -100.5t-68.5 -266.5q0 -113 17.5 -185.5t50 -115.5t80.5 -59.5t108 -16.5q23 0 48 2t54 6v144h-121v268h660v-268h-96v-434 q-139 -51 -290 -72t-276 -21q-236 0 -384 65.5t-232 170t-115 236t-31 264.5z" />
<glyph unicode="H" horiz-adv-x="1896" d="M92 0v305h160v811h-160v303h785v-303h-129v-252h405v252h-129v303h780v-303h-155v-811h155v-305h-780v305h129v277h-405v-277h129v-305h-785z" />
<glyph unicode="I" horiz-adv-x="1087" d="M143 0v305h156v811h-156v303h801v-303h-149v-811h149v-305h-801z" />
<glyph unicode="J" horiz-adv-x="1169" d="M-20 -59q137 53 216.5 99t120.5 98t53.5 119t12.5 163v696l-205 2v303h869v-305h-170v-719q0 -342 -201 -549.5t-588 -259.5z" />
<glyph unicode="K" horiz-adv-x="1744" d="M92 0v305h158v811h-158v299h776v-299h-139v-250l309 250h-96v299h723l-2 -299h-139l-316 -250l383 -559h113v-307h-762v307h96l-186 279l-123 -97v-184h123v-305h-760z" />
<glyph unicode="L" horiz-adv-x="1523" d="M92 0v305h158v811h-158v303h803v-303h-147v-811h399v277h336v-582h-1391z" />
<glyph unicode="M" horiz-adv-x="2299" d="M92 0v305h160v811h-160v303h785l131 -289l147 -333h8l140 344l116 278h789v-303h-133v-811h133v-305h-725v305h110v524h-6l-110 -276l-113 -266h-395l-133 276l-119 266h-6v-524h127v-305h-746z" />
<glyph unicode="N" horiz-adv-x="1937" d="M92 0v305h144v811h-144v303h674l240 -377l231 -383h8v457h-135v303h735v-303h-139v-1116h-489l-308 475l-215 348h-4v-518h137v-305h-735z" />
<glyph unicode="O" horiz-adv-x="1730" d="M102 717q0 160 48.5 295t143.5 232t237.5 152.5t332.5 55.5t332.5 -55.5t239 -152.5t144.5 -232t48 -295t-48 -296t-144.5 -235.5t-238.5 -155t-333 -55.5q-190 0 -332.5 55.5t-237.5 155t-143.5 235.5t-48.5 296zM629 717q0 -92 11 -168t39 -129t73 -83t112 -30 q68 0 112 29t71.5 82t39 129t11.5 170q0 88 -11.5 161.5t-39 127t-71.5 82t-112 28.5t-112.5 -31.5t-72.5 -86t-39 -127t-11 -154.5z" />
<glyph unicode="P" horiz-adv-x="1509" d="M92 0v305h150v811h-150v303h807q160 0 267.5 -36.5t172 -99t92 -148t27.5 -181.5t-33.5 -179t-100.5 -146.5t-165 -99t-225 -35.5h-195v-189h191v-305h-838zM739 782h56q78 0 108.5 48.5t30.5 113.5q0 172 -152 172h-43v-334z" />
<glyph unicode="Q" horiz-adv-x="1744" d="M102 717q0 160 48.5 295t143.5 232t237.5 152.5t332.5 55.5t332.5 -55.5t239 -152.5t144.5 -232t48 -295q0 -193 -68.5 -348.5t-205.5 -253.5l315 -78l-137 -352l-844 305q-145 25 -254.5 88t-183.5 158.5t-111 217t-37 263.5zM629 717q0 -92 11 -168t39 -129t73 -83 t112 -30q68 0 112 29t71.5 82t39 129t11.5 170q0 88 -11.5 161.5t-39 127t-71.5 82t-112 28.5t-112.5 -31.5t-72.5 -86t-39 -127t-11 -154.5z" />
<glyph unicode="R" horiz-adv-x="1654" d="M102 0v305h142v811h-142v303h867q160 0 262 -40t161.5 -104.5t82 -145t22.5 -160.5q0 -47 -12 -98.5t-38 -99.5t-66 -88t-97 -67l172 -321l168 -27v-264q-37 -12 -82 -20.5t-88 -14.5t-81 -8t-60 -2q-66 0 -113 13.5t-83 40t-63.5 67.5t-52.5 96l-153 354h-115v-225h123 v-305h-754zM733 817h74q74 0 118 37t44 125q0 68 -37 102.5t-105 34.5h-94v-299z" />
<glyph unicode="S" horiz-adv-x="1495" d="M92 965q0 104 36 192t115 151.5t201.5 98.5t296.5 35q61 0 133 -6t142.5 -18.5t139.5 -31t124 -43.5v-395h-336v131q-41 16 -91 22.5t-79 6.5q-84 0 -121 -27.5t-37 -68.5q0 -29 30 -49.5t73 -37t91 -28.5t85 -20q102 -23 194.5 -56t162 -84t110.5 -123.5t41 -175.5 q0 -109 -40 -195.5t-124 -147t-216 -93.5t-318 -33q-141 0 -295 22.5t-295 74.5v419h331v-143q25 -8 58 -13t65.5 -8.5t59 -5.5t43.5 -2q57 0 92 10.5t53.5 23.5t23.5 28.5t5 27.5q0 35 -19.5 54.5t-52.5 29.5q-57 16 -139 34t-168 40q-180 47 -277.5 148.5t-97.5 255.5z " />
<glyph unicode="T" horiz-adv-x="1554" d="M41 864v555h1472v-555h-329v252h-162v-811h166v-305h-828v305h170v811h-159v-252h-330z" />
<glyph unicode="U" horiz-adv-x="1726" d="M72 1116v303h708v-303h-108v-604q0 -113 49 -159t149 -46q35 0 69 9.5t59.5 32t42 62.5t16.5 101v604h-109v303h707v-303h-119v-575q0 -274 -157.5 -419t-512.5 -145q-188 0 -317 38t-211 111t-118 177.5t-36 237.5v575h-112z" />
<glyph unicode="V" horiz-adv-x="1726" d="M31 1114v305h735v-305h-121l111 -336l118 -387h9l116 381l111 342h-127v305h713v-305h-101l-411 -1114h-629l-426 1114h-98z" />
<glyph unicode="W" horiz-adv-x="2514" d="M29 1114v305h747v-305h-102l74 -293l98 -418h8l115 410l57 184l-39 117h-106v305h725v-305h-127l100 -283l127 -366h6l88 389l64 260h-113v305h735v-305h-114l-338 -1114h-631l-92 276l-62 195h-10l-61 -195l-91 -276h-622l-330 1114h-106z" />
<glyph unicode="X" horiz-adv-x="1685" d="M31 0v307h102l354 459l-274 344h-172v309h866v-309h-82l146 -180l141 184h-86v305h608v-305h-104l-354 -426l323 -381h133v-307h-854v307h78l-156 201l-155 -201h82v-307h-596z" />
<glyph unicode="Y" horiz-adv-x="1636" d="M31 1114v305h714v-305h-110l186 -330h8l183 330h-113v305h707v-305h-101l-422 -647v-162h150v-305h-844v305h154v162l-414 647h-98z" />
<glyph unicode="Z" horiz-adv-x="1507" d="M63 0v301l697 817h-316v-256h-331v557h1296v-286l-704 -828h409v295h332v-600h-1383z" />
<glyph unicode="[" horiz-adv-x="817" d="M158 -326v1766h587v-250h-188v-1286h188v-230h-587z" />
<glyph unicode="\" horiz-adv-x="888" d="M-4 1464h346l539 -1548h-344z" />
<glyph unicode="]" horiz-adv-x="817" d="M98 -96h189v1286h-189v250h588v-1766h-588v230z" />
<glyph unicode="^" horiz-adv-x="1142" d="M35 647l422 737h202l426 -737h-303l-221 400l-223 -400h-303z" />
<glyph unicode="_" horiz-adv-x="1024" d="M0 -121h1026v-221h-1026v221z" />
<glyph unicode="`" horiz-adv-x="1331" d="M297 1409l197 246l389 -373l-133 -160z" />
<glyph unicode="a" horiz-adv-x="1331" d="M61 272q0 33 8.5 78t38 87t86 75t152.5 43l352 41v18q0 49 -27.5 74t-105.5 25q-37 0 -79 -3t-83 -8.5t-78.5 -12.5t-66.5 -15l-68 280q47 18 106.5 35t125 27t134.5 16t132 6q106 0 193.5 -18.5t148 -62.5t93 -115.5t32.5 -175.5v-365h100l15 -270q-31 -16 -72 -27.5 t-86 -20t-89 -12.5t-81 -4q-80 0 -140.5 28t-70.5 111l-4 3q-43 -49 -92 -77t-94 -42.5t-82 -17.5t-56 -3q-104 0 -170.5 31t-104.5 77t-52.5 98t-14.5 97zM557 334q0 -39 14.5 -63.5t55.5 -24.5q39 0 67 28v146l-84 -19q-35 -8 -44 -29.5t-9 -37.5z" />
<glyph unicode="b" horiz-adv-x="1466" d="M51 1192v291h598v-514q72 43 147.5 58t116.5 15q135 0 226.5 -39.5t145.5 -110.5t76.5 -168t22.5 -214q0 -102 -23.5 -198.5t-88 -171t-178 -120t-293.5 -45.5q-29 0 -98.5 3.5t-158.5 16.5t-189.5 38.5t-190.5 70.5v1088h-113zM651 324q35 -14 69 -20.5t56 -6.5 q20 0 43 4t42.5 24.5t31.5 62.5t12 118t-13 118t-33.5 62.5t-43.5 23.5t-41 3q-29 0 -59.5 -11.5t-63.5 -27.5v-350z" />
<glyph unicode="c" horiz-adv-x="1153" d="M82 502q0 102 25.5 198.5t92 172t183.5 120.5t299 45q86 0 179 -11t179 -40l-2 -371h-303v101q-11 1 -21 1q-36 0 -60 -10q-32 -14 -50 -40.5t-25.5 -64.5t-7.5 -83q0 -70 14.5 -110.5t41 -63t61.5 -30t78 -7.5q29 0 63.5 4t69.5 9.5t65.5 11.5t53.5 10l74 -291 q-90 -41 -203 -60.5t-223 -19.5q-180 0 -294 45t-178.5 120t-88 170t-23.5 194z" />
<glyph unicode="d" horiz-adv-x="1478" d="M82 481q0 121 24.5 224.5t80 178t145.5 116.5t223 42q20 0 52 -3t69 -9t74.5 -15t68.5 -22v199h-125v291h611v-1188h112v-295h-569v78l-6 2q-37 -31 -81 -50.5t-86 -31.5t-78 -16.5t-56 -4.5q-133 0 -221.5 39t-141.5 106.5t-74.5 160t-21.5 198.5zM563 492 q0 -70 12.5 -109t32 -57.5t42 -21.5t42.5 -3q23 0 56.5 9t68.5 28v342q-39 18 -69.5 25.5t-59.5 7.5q-16 0 -36.5 -4t-41 -24.5t-34 -66t-13.5 -126.5z" />
<glyph unicode="e" horiz-adv-x="1253" d="M82 504q0 111 30.5 208t99.5 169.5t178 115.5t265 43q147 0 246.5 -41t160 -111.5t85 -162.5t24.5 -195v-67h-606q0 -47 12.5 -78t37 -48.5t61.5 -23.5t84 -6q68 0 150.5 15.5t150.5 35.5l88 -276q-57 -31 -120.5 -51.5t-128 -32.5t-126 -17.5t-115.5 -5.5 q-178 0 -289.5 45.5t-176 119t-88 168.5t-23.5 196zM571 598h170q0 59 -16 95t-63 36q-49 0 -70 -38t-21 -93z" />
<glyph unicode="f" horiz-adv-x="1110" d="M72 723v256l153 47v76q0 68 12.5 138.5t60.5 128.5t141 96t257 38q33 0 79 -3t97.5 -9t104.5 -16.5t102 -24.5l-65 -317q-51 10 -105.5 16t-91.5 6q-55 0 -88 -17.5t-33 -62.5v-63h285v-289h-285v-430h142v-293h-729v293h114v430h-151z" />
<glyph unicode="g" horiz-adv-x="1402" d="M72 -219q0 152 127 231q-47 18 -74 60.5t-27 93.5q0 57 39 114.5t127 94.5q-70 29 -108.5 98.5t-38.5 167.5q0 104 46 179t124 123t179 70.5t214 22.5q76 0 142.5 -7t105.5 -17h409v-195h-116l-13 -10q14 -31 23.5 -78t9.5 -72q0 -94 -44 -161.5t-117.5 -112.5 t-170 -66.5t-200.5 -23.5l-127 -2q-37 0 -55.5 -16.5t-18.5 -36.5q0 -12 9 -21.5t38 -9.5h334q98 0 181 -12.5t143.5 -45t94 -87t33.5 -138.5q0 -61 -28.5 -128.5t-109.5 -123t-224 -91.5t-373 -36q-158 0 -261 20.5t-163.5 53.5t-85 75t-24.5 87zM545 -96q0 -57 129 -58 q68 0 116 17.5t48 44.5q0 29 -20.5 37t-45.5 8h-188q-23 -12 -31 -25.5t-8 -23.5zM602 657q0 -77 76 -77h2q29 0 51.5 18.5t22.5 63.5q0 83 -76 83h-2q-39 0 -56.5 -27.5t-17.5 -60.5z" />
<glyph unicode="h" horiz-adv-x="1509" d="M41 1192v291h604v-559q146 116 308 116h3q375 0 375 -378v-349h117v-284q-72 -29 -150.5 -43.5t-150.5 -14.5q-88 0 -146.5 17.5t-93.5 51.5t-49 83t-14 113v325q0 66 -28 92.5t-75 26.5q-20 0 -46.5 -11.5t-49.5 -33.5v-635h-489v1192h-115z" />
<glyph unicode="i" horiz-adv-x="888" d="M82 721v293h588v-701h137v-284q-72 -29 -161 -43.5t-161 -14.5q-88 0 -146 17.5t-93 51.5t-49.5 83t-14.5 113v485h-100zM154 1372q0 55 20.5 103.5t55 84t82.5 56t104 20.5q53 0 101 -20.5t85 -56t58.5 -84t21.5 -103.5t-21.5 -103t-58.5 -84t-85 -56.5t-101 -20.5 q-55 0 -103.5 20.5t-83 56.5t-55 84t-20.5 103z" />
<glyph unicode="j" horiz-adv-x="843" d="M-66 -207q88 51 139.5 89t77 83t32.5 105.5t7 154.5v496h-100v293h590v-789q0 -168 -37 -290.5t-114.5 -208.5t-197.5 -138.5t-286 -79.5zM164 1372q0 55 20.5 103.5t55 84t83 56t103.5 20.5q53 0 101 -20.5t85 -56t58.5 -84t21.5 -103.5t-21.5 -103t-58.5 -84t-85 -56.5 t-101 -20.5q-55 0 -103.5 20.5t-83 56.5t-55 84t-20.5 103z" />
<glyph unicode="k" horiz-adv-x="1478" d="M72 1188v291h602v-787l123 90v230h567v-289h-98l-152 -96l184 -332l117 -25v-254q-31 -10 -67.5 -17t-73.5 -12t-70 -8.5t-55 -3.5q-14 -1 -27 -1q-36 0 -66 4q-40 6 -71 21t-54.5 43t-41.5 69l-131 284l-84 -55v-47h69v-293h-669v293h108v895h-110z" />
<glyph unicode="l" horiz-adv-x="890" d="M82 0v293h119v899h-119v291h606v-1190h121v-293h-727z" />
<glyph unicode="m" horiz-adv-x="2131" d="M61 725v291h586v-103h8q82 68 176.5 97.5t161.5 29.5q115 0 173.5 -38.5t95.5 -116.5q78 78 174 116.5t172 38.5q182 0 264 -95t82 -283v-349h117v-284q-72 -29 -151 -43.5t-151 -14.5q-88 0 -146 17.5t-93 51.5t-49.5 83t-14.5 113v366q0 47 -17 62.5t-46 15.5 q-23 0 -49.5 -13.5t-46.5 -31.5v-635h-480l-2 600q0 35 -13 57.5t-50 22.5q-16 0 -43 -11.5t-53 -33.5v-635h-490v725h-115z" />
<glyph unicode="n" horiz-adv-x="1529" d="M61 725v291h592v-88l13 -4q72 53 152.5 84.5t158.5 31.5q375 0 375 -378v-349h116v-284q-72 -29 -150.5 -43.5t-150.5 -14.5q-88 0 -146 17.5t-93 51.5t-49.5 83t-14.5 113v325q0 66 -27.5 92.5t-74.5 26.5q-20 0 -47 -11.5t-49 -33.5v-635h-490v725h-115z" />
<glyph unicode="o" horiz-adv-x="1394" d="M82 510q0 117 38 214t114.5 165.5t192.5 107.5t269 39q154 0 268.5 -39t192.5 -107.5t117 -165.5t39 -214q0 -119 -39 -216t-117 -168t-192.5 -110t-268.5 -39t-269.5 39t-192 110t-114.5 168t-38 216zM578 510q0 -96 24.5 -156.5t93.5 -60.5q70 0 94.5 58.5t24.5 158.5 q0 92 -24.5 148.5t-94.5 56.5q-35 0 -57.5 -16.5t-36.5 -45t-19 -65.5t-5 -78z" />
<glyph unicode="p" horiz-adv-x="1480" d="M61 -145h115v864h-113v293h570v-78l6 -2q37 31 81 50t86 31.5t78 16.5t56 4q133 0 221 -39t141.5 -106.5t75 -159.5t21.5 -199q0 -121 -24.5 -222t-80 -174t-146.5 -113.5t-222 -40.5q-20 0 -52 3t-69 9t-75 15t-68 22v-174h116v-291h-717v291zM664 342 q39 -18 69.5 -25.5t59.5 -7.5q14 0 35.5 6.5t42 28t34 63.5t13.5 113q0 70 -12.5 109t-32 57.5t-42 21.5t-43.5 3q-23 0 -56.5 -9.5t-67.5 -27.5v-332z" />
<glyph unicode="q" horiz-adv-x="1445" d="M82 453q0 113 26.5 218t97 187t193.5 132t316 50q29 0 93 -3t146 -14t173.5 -33.5t175.5 -63.5v-1067h112v-295h-708v295h110v188q-72 -43 -147.5 -58.5t-116.5 -15.5q-123 0 -212 34t-146.5 96.5t-85 151.5t-27.5 198zM561 510q0 -78 13.5 -119t34 -61.5t43 -23.5 t40.5 -3q53 0 123 35v358q-16 4 -43 10.5t-55 6.5q-29 0 -56.5 -8.5t-50 -31t-36 -62.5t-13.5 -101z" />
<glyph unicode="r" horiz-adv-x="1196" d="M82 0v293h106v430h-98v293h576v-162l12 -6q37 31 84 62.5t99 59t107.5 45t108.5 17.5q59 0 79 -30.5t20 -98.5q0 -39 -7.5 -86t-24 -96t-43 -95t-63.5 -81l-366 86v-338h106v-293h-696z" />
<glyph unicode="s" horiz-adv-x="1236" d="M68 702q0 74 29.5 136.5t95 107.5t169 70.5t248.5 25.5q55 0 115.5 -5t121 -15t118 -26t106.5 -38v-292h-319v79q-41 10 -97 11q-39 0 -67.5 -11.5t-28.5 -39.5q0 -27 45 -42.5t111.5 -31t145.5 -36t145.5 -57t111.5 -95t45 -148.5q0 -74 -29.5 -133.5t-97 -100.5 t-176 -63.5t-264.5 -22.5q-115 0 -252 17.5t-268 70.5v306h327v-80q16 -10 60.5 -16.5t89.5 -6.5q43 0 74.5 8.5t31.5 30.5q0 27 -18 36t-68 21q-96 25 -187 52.5t-161.5 66.5t-113.5 92.5t-43 128.5z" />
<glyph unicode="t" horiz-adv-x="1042" d="M23 723v258l172 51l106 277l338 24v-319h279v-291h-279v-246q0 -53 7 -82.5t24.5 -46t44 -20.5t65.5 -4q16 0 58.5 4t87.5 10l49 -305q-39 -16 -84 -26.5t-90 -18.5t-88 -11.5t-76 -3.5q-166 0 -261 39t-143.5 96.5t-60.5 124t-12 123.5v367h-137z" />
<glyph unicode="u" horiz-adv-x="1505" d="M61 721v293h605v-565q0 -59 19.5 -83t66.5 -24q10 0 37.5 10t50.5 37v334h-84v293h571v-703h117v-286q-111 -37 -189.5 -46.5t-126.5 -9.5q-133 0 -189 44t-73 114q-66 -66 -147.5 -112t-192.5 -46q-76 0 -139 20.5t-109.5 63.5t-73 110.5t-26.5 162.5v393h-117z" />
<glyph unicode="v" horiz-adv-x="1509" d="M20 672v342h508l158 -445l80 -223h8l70 217l59 158h-49v293h631v-293h-94l-318 -721h-637l-293 672h-123z" />
<glyph unicode="w" horiz-adv-x="2080" d="M14 672v342h457l133 -459l68 -227h12l66 223l45 141l-13 29h-96v293h649v-293h-67l78 -211l69 -182h10l60 196l67 199h-73v291h589v-291h-79l-254 -723h-600l-50 129l-57 166h-6l-53 -168l-47 -127h-580l-233 672h-95z" />
<glyph unicode="x" horiz-adv-x="1437" d="M61 0v291h74l236 268l-164 150h-117v12h-2v291h670v-291l90 -84l86 84h-53v291h479l2 -291h-66l-245 -258l182 -172h125v-291h-752v291h60l-103 100l-94 -100h53v-291h-461z" />
<glyph unicode="y" horiz-adv-x="1443" d="M31 690v324h469l137 -471l65 -244h9l80 262l49 160h-82v293h645v-293h-86l-393 -979q-18 -43 -42 -81t-59 -65.5t-84 -43t-116 -15.5q-23 0 -69 3t-101.5 11.5t-116 21.5t-111.5 32l51 301q45 -6 82 -10.5t66 -4.5q61 0 97 23t59 86l18 53h-229l-238 637h-100z" />
<glyph unicode="z" horiz-adv-x="1275" d="M82 0v240l489 508h-172v-134h-303v400h1067v-232l-491 -516h221v140h301v-406h-1112z" />
<glyph unicode="{" horiz-adv-x="872" d="M72 436v246h16q68 0 105.5 34t37.5 111v295q0 70 21.5 129.5t62.5 102.5t102.5 67.5t141.5 24.5h285v-246h-70q-45 0 -71.5 -11t-41 -29.5t-19.5 -43t-5 -49.5v-307q0 -82 -49 -130t-125 -61v-8q92 -12 133 -71.5t41 -137.5v-315q0 -27 5 -51.5t19.5 -43t41 -29.5 t71.5 -11h70v-236h-285q-70 0 -129 24.5t-103 68.5t-70 103.5t-26 129.5v297q0 78 -37.5 112.5t-105.5 34.5h-16z" />
<glyph unicode="|" horiz-adv-x="872" d="M279 -324v1797h321v-1797h-321z" />
<glyph unicode="}" horiz-adv-x="872" d="M43 -98h70q45 0 71.5 11t41 29.5t19.5 43t5 51.5v315q0 78 41 137.5t133 71.5v8q-76 12 -125 60.5t-49 130.5v307q0 25 -5 49.5t-19.5 43t-41 29.5t-71.5 11h-70v246h285q80 0 141 -24.5t102 -67.5t62.5 -102.5t21.5 -129.5v-295q0 -78 38 -111.5t106 -33.5h16v-246h-16 q-68 0 -106 -34.5t-38 -112.5v-297q0 -70 -25.5 -129.5t-69.5 -103.5t-103.5 -68.5t-128.5 -24.5h-285v236z" />
<glyph unicode="~" d="M121 524q31 86 66.5 142.5t75.5 90.5t84 47t91 13q63 0 132 -13t136.5 -30.5t134 -31t128.5 -13.5l135 98l149 -110q-53 -154 -126.5 -227.5t-182.5 -73.5q-72 0 -148.5 14t-148.5 31.5t-134 32t-107 14.5l-134 -94z" />
<glyph unicode="&#xa1;" horiz-adv-x="772" d="M162 825q0 41 15.5 79t44 66.5t70.5 46t95 17.5q51 0 92 -17.5t71 -46t46 -66.5t16 -79q0 -90 -60.5 -151.5t-164.5 -61.5q-51 0 -92 17.5t-70.5 46.5t-46 67.5t-16.5 81.5zM166 -37l41 567h358l41 -567v-436h-440v436z" />
<glyph unicode="&#xa2;" horiz-adv-x="1153" d="M82 502q0 88 18.5 172t65.5 154.5t129 121.5t209 74v236h321v-230q115 -10 215 -43l-2 -371h-303v101q-49 4 -80.5 -9.5t-50 -40t-26 -64.5t-7.5 -83q0 -70 14.5 -110.5t41 -63t61.5 -30t78 -7.5q29 0 63.5 4t69.5 9.5t65.5 11.5t53.5 10l74 -291q-57 -29 -126 -44 t-141 -25v-254h-321v256q-129 20 -211 70t-129 121t-64.5 155t-17.5 170z" />
<glyph unicode="&#xa3;" d="M94 0l2 287q37 37 59.5 69.5t37 65.5t21.5 67.5t11 75.5l2 25h-110v203h129l12 141q43 487 533 487q147 0 250.5 -28.5t181.5 -59.5v-383h-312v127q-49 12 -88 13q-55 0 -90 -38t-43 -141l-10 -118h225v-203h-243l-5 -51q-6 -78 -26.5 -139.5t-69.5 -112.5h651v-287 h-1118z" />
<glyph unicode="&#xa5;" d="M31 1081v297h622v-297h-92l123 -325h6l119 325h-94v297h614v-297h-86l-119 -272h125v-141h-1130v141h114l-116 272h-86zM119 451v139h1130v-139h-336l-2 -7v-149h131v-295h-735v295h135v149l-4 7h-319z" />
<glyph unicode="&#xa7;" horiz-adv-x="1257" d="M152 616q0 90 34.5 154t98.5 111q-49 35 -87 90t-38 147q0 96 43 164t115.5 111t169 62.5t204.5 19.5q55 0 111.5 -6.5t109 -16.5t95.5 -24.5t71 -28.5v-326h-293v144q-45 10 -67.5 12t-36.5 2q-68 -2 -97.5 -27.5t-29.5 -62.5q0 -20 30.5 -43t72.5 -43.5t83 -37 t62 -22.5q63 -23 121.5 -48t103.5 -61t72.5 -84t27.5 -118q0 -88 -34.5 -151.5t-94.5 -106.5q72 -49 116 -113.5t44 -136.5q0 -76 -31.5 -143.5t-101.5 -117.5t-177.5 -79t-256.5 -29q-119 0 -222.5 20.5t-185.5 51.5v338h289l-2 -127q23 -6 50.5 -13t64.5 -7 q90 0 122.5 19.5t32.5 55.5q0 12 -4 23.5t-21.5 25t-52 30t-96.5 36.5q-80 27 -155.5 57.5t-133 71.5t-92 95.5t-34.5 131.5zM502 674q0 -33 33.5 -52.5t111.5 -48.5l101 -34q18 14 28 35.5t10 43.5q0 29 -59 65t-180 77q-29 -18 -37 -41t-8 -45z" />
<glyph unicode="&#xa8;" horiz-adv-x="1331" d="M219 1329q0 43 15.5 80t42 63.5t63.5 42t78 15.5t76.5 -15.5t63.5 -42t43 -63.5t15 -80q0 -41 -15 -78t-43 -63.5t-63.5 -42t-76.5 -15.5q-84 0 -141.5 57.5t-57.5 141.5zM686 1329q0 43 15.5 80t43 63.5t63.5 42t79 15.5q84 0 140 -57.5t56 -143.5q0 -84 -56 -141.5 t-140 -57.5q-86 0 -143.5 57.5t-57.5 141.5z" />
<glyph unicode="&#xa9;" horiz-adv-x="1839" d="M86 668q0 170 65.5 319.5t178 261t263 176t320.5 64.5q168 0 317.5 -64.5t262.5 -176t177.5 -261t64.5 -319.5t-64.5 -320.5t-177.5 -262.5t-262.5 -176.5t-317.5 -64.5q-170 0 -320.5 64.5t-263 176.5t-178 262.5t-65.5 320.5zM264 668q0 -133 51.5 -251t139.5 -205 t206.5 -138t251.5 -51t251 51t205 138t138.5 205t51.5 251t-51.5 250.5t-138.5 205.5t-204.5 139.5t-251.5 51.5q-133 0 -251.5 -51.5t-206.5 -139.5t-139.5 -205.5t-51.5 -250.5zM438 651q0 92 24.5 179.5t85 155t164 108.5t263.5 41q72 0 135.5 -10.5t128.5 -26.5v-320 h-205v117q-8 2 -24.5 2h-24.5q-111 0 -158 -59t-47 -174q0 -84 19.5 -131.5t53.5 -71t78 -29.5t93 -6q14 0 40 1t54.5 4t58 7t50.5 8l43 -215q-74 -29 -166 -41t-172 -12q-152 0 -248 41t-150.5 107.5t-75 151.5t-20.5 173z" />
<glyph unicode="&#xaa;" horiz-adv-x="917" d="M41 737q0 23 6 53.5t26.5 58.5t60.5 49.5t108 27.5l233 26v6q0 29 -17.5 43.5t-68.5 14.5q-23 0 -51.5 -2t-57 -6t-56 -8.5t-48.5 -10.5l-51 193q68 27 164 42t186 15q150 0 238 -55.5t88 -192.5v-227h67l11 -184q-23 -10 -51.5 -18.5t-60.5 -13.5t-63.5 -8t-56.5 -3 q-53 0 -95 18t-52 70q-31 -33 -64 -50.5t-63.5 -25.5t-55 -10t-36.5 -2q-74 0 -120 20.5t-73 51t-37 65.5t-10 63zM387 778q0 -25 8 -40t37 -15q10 0 23.5 4t21.5 10v92l-53 -10q-25 -4 -31 -18.5t-6 -22.5z" />
<glyph unicode="&#xab;" horiz-adv-x="1214" d="M61 393v76l406 434l195 -129l-224 -342l217 -334l-198 -139zM569 393v76l406 434l196 -129l-223 -342l215 -334l-196 -139z" />
<glyph unicode="&#xac;" d="M246 506v252h934v-611h-260v359h-674z" />
<glyph unicode="&#xad;" horiz-adv-x="894" d="M139 412v309h617v-309h-617z" />
<glyph unicode="&#xae;" horiz-adv-x="1339" d="M92 936q0 121 42 226.5t119 183t183.5 122.5t235.5 45t234.5 -45t181 -122.5t117.5 -183t42 -226.5q0 -119 -42 -223.5t-118.5 -183t-182 -124t-232.5 -45.5q-125 0 -231.5 45.5t-183.5 124t-121 183t-44 223.5zM225 936q0 -92 31 -173t89 -141.5t141 -95t186 -34.5 q109 0 191.5 34.5t140 95t86 141.5t28.5 173t-32.5 173t-91 141.5t-141.5 96t-181 35.5t-181 -35.5t-141.5 -96t-91.5 -141.5t-33 -173zM381 666v125h63v335h-63v127h362q66 0 109 -16t67.5 -43t34 -60.5t9.5 -66.5q0 -39 -20.5 -82t-65.5 -65l63 -134l74 -8v-110 q-31 -10 -72 -14.5t-61 -4.5q-53 0 -80 21.5t-47 68.5l-64 146h-43v-94h49v-125h-315zM647 1006h33q31 0 49.5 14t18.5 51q0 57 -60 57h-41v-122z" />
<glyph unicode="&#xaf;" horiz-adv-x="1331" d="M276 1124v279h820v-279h-820z" />
<glyph unicode="&#xb0;" horiz-adv-x="856" d="M61 1100q0 76 29 140.5t77 111.5t112.5 74.5t136.5 27.5q74 0 138 -27.5t112.5 -74.5t77 -111.5t28.5 -140.5q0 -72 -28.5 -136.5t-77 -112.5t-113 -77t-137.5 -29q-72 0 -136.5 26t-112.5 72t-77 111.5t-29 145.5zM276 1100q0 -63 39 -102.5t101 -39.5q63 0 102 38 t39 104t-39 103.5t-102 37.5q-61 0 -100.5 -39t-39.5 -102z" />
<glyph unicode="&#xb1;" d="M246 0v252h934v-252h-934zM246 598v252h338v287h260v-287h336v-252h-336v-272h-260v272h-338z" />
<glyph unicode="&#xb4;" horiz-adv-x="1331" d="M514 1282l387 375l207 -246l-461 -289z" />
<glyph unicode="&#xb6;" horiz-adv-x="1540" d="M84 981q0 100 33 190.5t94 158t150.5 106.5t203.5 39h908v-304h-138v-1638h-313v1638h-102v-1638h-514v274h198v697h-39q-104 0 -192 32.5t-152.5 94t-100.5 149.5t-36 201z" />
<glyph unicode="&#xb7;" horiz-adv-x="714" d="M129 561q0 47 18.5 89t50 74t73.5 50.5t89 18.5t89.5 -18.5t74 -50.5t50 -74t18.5 -89t-18.5 -89t-50 -72.5t-73.5 -49t-90 -18.5q-47 0 -89 18.5t-73.5 49t-50 72.5t-18.5 89z" />
<glyph unicode="&#xb8;" horiz-adv-x="1153" d="M397 -393q113 10 167 35.5t54 60.5q0 31 -29.5 40t-64.5 9q-20 0 -37.5 -1t-31.5 -3l-47 72l221 299l114 -66l-106 -147q106 -23 159.5 -77t53.5 -138q0 -35 -19.5 -77t-70.5 -79t-137 -61.5t-217 -26.5z" />
<glyph unicode="&#xba;" horiz-adv-x="962" d="M55 893q0 154 105.5 249t320.5 95q213 0 319.5 -95t106.5 -249q0 -158 -106.5 -254t-319.5 -96q-215 0 -320.5 96t-105.5 254zM406 893q0 -59 15 -97t60 -38t60.5 37t15.5 98q0 55 -15.5 90t-60.5 35t-60 -39t-15 -86z" />
<glyph unicode="&#xbb;" horiz-adv-x="1214" d="M61 774l195 129l406 -434v-76l-396 -434l-198 139l217 334zM569 774l197 129l405 -434v-76l-397 -434l-196 139l215 334z" />
<glyph unicode="&#xbf;" horiz-adv-x="1202" d="M98 -55q0 74 28 132t71 107t91 92t91 84t70.5 84t27.5 95v28h391v-98q0 -106 -40 -174t-89 -118t-89 -93t-40 -100q0 -51 35 -83t105 -32q20 0 38.5 1t36.5 3l2 139h316v-391q-156 -59 -289 -76.5t-231 -17.5q-127 0 -225.5 30.5t-165 86t-100.5 132.5t-34 169zM432 825 q0 41 17.5 78t47 65.5t69.5 45t87 16.5t87 -16.5t70 -45t47 -65.5t17 -78q0 -43 -17 -80.5t-47 -66.5t-71 -45.5t-86 -16.5q-47 0 -87 16.5t-69.5 44.5t-47 66.5t-17.5 81.5z" />
<glyph unicode="&#xc0;" horiz-adv-x="1744" d="M41 0v305h109l436 1114h608l399 -1114h111v-305h-715v305h109l-29 92h-428l-31 -92h115v-305h-684zM475 1815l197 245l389 -372l-133 -160zM741 682h240l-43 135l-66 227h-8l-73 -223z" />
<glyph unicode="&#xc1;" horiz-adv-x="1744" d="M41 0v305h109l436 1114h608l399 -1114h111v-305h-715v305h109l-29 92h-428l-31 -92h115v-305h-684zM741 682h240l-43 135l-66 227h-8l-73 -223zM748 1690l387 374l206 -245l-460 -289z" />
<glyph unicode="&#xc2;" horiz-adv-x="1744" d="M41 0v305h109l436 1114h608l399 -1114h111v-305h-715v305h109l-29 92h-428l-31 -92h115v-305h-684zM393 1657l326 332h291l333 -332l-110 -127l-371 209l-364 -205zM741 682h240l-43 135l-66 227h-8l-73 -223z" />
<glyph unicode="&#xc3;" horiz-adv-x="1744" d="M41 0v305h109l436 1114h608l399 -1114h111v-305h-715v305h109l-29 92h-428l-31 -92h115v-305h-684zM399 1657q51 143 118 194.5t147 51.5q55 0 112.5 -11.5t114.5 -26t112.5 -25.5t106.5 -11l113 84l123 -92q-43 -131 -105 -192.5t-154 -61.5q-61 0 -124.5 12t-124 26.5 t-112.5 27t-89 12.5l-111 -80zM741 682h240l-43 135l-66 227h-8l-73 -223z" />
<glyph unicode="&#xc4;" horiz-adv-x="1744" d="M41 0v305h109l436 1114h608l399 -1114h111v-305h-715v305h109l-29 92h-428l-31 -92h115v-305h-684zM487 1708q0 80 54.5 133t132.5 53q76 0 130 -53t54 -133q0 -39 -14.5 -72.5t-40 -59.5t-59 -40t-70.5 -14q-78 0 -132.5 54t-54.5 132zM741 682h240l-43 135l-66 227h-8 l-73 -223zM924 1708q0 80 54 133t132 53t131 -53t53 -133q0 -78 -53 -132t-131 -54t-132 54t-54 132z" />
<glyph unicode="&#xc5;" horiz-adv-x="1744" d="M41 0v305h109l436 1114h608l399 -1114h111v-305h-715v305h109l-29 92h-428l-31 -92h115v-305h-684zM567 1819q0 59 23.5 113.5t65.5 95t97.5 64.5t120.5 24q66 0 121.5 -24t94 -64.5t60 -94t21.5 -114.5t-23.5 -115.5t-63.5 -94.5t-94.5 -62.5t-115.5 -22.5 q-66 0 -121 23.5t-97 63.5t-65.5 93t-23.5 115zM741 682h240l-43 135l-66 227h-8l-73 -223zM770 1812q0 -35 26.5 -66.5t77.5 -31.5q45 0 70 32t25 66q0 41 -24 73t-71 32q-45 0 -74.5 -32t-29.5 -73z" />
<glyph unicode="&#xc6;" horiz-adv-x="2355" d="M45 0v305h94l502 801h-96v313h1712v-555h-334v252h-313v-252h231v-282h-231v-277h329v277h334v-582h-1312v305h151v92h-418l-59 -92h90v-305h-680zM844 682h268v422h-8z" />
<glyph unicode="&#xc7;" horiz-adv-x="1460" d="M102 711q0 143 33 277t120 237.5t241.5 166t400.5 62.5q109 0 209 -14.5t201 -42.5v-512h-338v192q-18 4 -32.5 5t-31.5 1q-80 0 -133 -25.5t-85 -72.5t-45 -112.5t-13 -145.5q0 -123 25.5 -194.5t72.5 -108.5t113.5 -46t148.5 -9q23 0 62 3t85 8t92 12t81 14l69 -345 q-104 -41 -230 -61t-245 -25l-76 -104q106 -23 159.5 -77t53.5 -138q0 -35 -19.5 -77t-70.5 -79t-137 -61.5t-217 -26.5l-8 160q113 10 167 35.5t54 60.5q0 31 -29.5 40t-64.5 9q-20 0 -38 -1t-32 -3l-47 72l143 197q-197 16 -321.5 83.5t-195 168t-96.5 224.5t-26 253z" />
<glyph unicode="&#xc8;" horiz-adv-x="1589" d="M92 0v305h152v811h-152v303h1399v-555h-334v252h-416v-252l314 6v-295l-314 7v-277h433v277h333v-582h-1415zM475 1815l197 245l389 -372l-133 -160z" />
<glyph unicode="&#xc9;" horiz-adv-x="1589" d="M92 0v305h152v811h-152v303h1399v-555h-334v252h-416v-252l314 6v-295l-314 7v-277h433v277h333v-582h-1415zM633 1690l387 374l207 -245l-461 -289z" />
<glyph unicode="&#xca;" horiz-adv-x="1589" d="M92 0v305h152v811h-152v303h1399v-555h-334v252h-416v-252l314 6v-295l-314 7v-277h433v277h333v-582h-1415zM348 1657l326 332h291l333 -332l-110 -127l-371 209l-364 -205z" />
<glyph unicode="&#xcb;" horiz-adv-x="1589" d="M92 0v305h152v811h-152v303h1399v-555h-334v252h-416v-252l314 6v-295l-314 7v-277h433v277h333v-582h-1415zM432 1708q0 80 54.5 133t131.5 53q76 0 130.5 -53t54.5 -133q0 -39 -14.5 -72.5t-40 -59.5t-59.5 -40t-71 -14q-78 0 -132 54t-54 132zM868 1708q0 80 54.5 133 t132.5 53t131 -53t53 -133q0 -78 -53 -132t-131 -54t-132.5 54t-54.5 132z" />
<glyph unicode="&#xcc;" horiz-adv-x="1087" d="M111 1815l196 245l389 -372l-133 -160zM143 0v305h156v811h-156v303h801v-303h-149v-811h149v-305h-801z" />
<glyph unicode="&#xcd;" horiz-adv-x="1087" d="M143 0v305h156v811h-156v303h801v-303h-149v-811h149v-305h-801zM432 1690l387 374l207 -245l-461 -289z" />
<glyph unicode="&#xce;" horiz-adv-x="1087" d="M74 1657l325 332h291l334 -332l-111 -127l-370 209l-365 -205zM143 0v305h156v811h-156v303h801v-303h-149v-811h149v-305h-801z" />
<glyph unicode="&#xcf;" horiz-adv-x="1087" d="M139 1708q0 80 54.5 133t132.5 53q76 0 130 -53t54 -133q0 -39 -14.5 -72.5t-40 -59.5t-59.5 -40t-70 -14q-78 0 -132.5 54t-54.5 132zM143 0v305h156v811h-156v303h801v-303h-149v-811h149v-305h-801zM575 1708q0 80 54.5 133t132.5 53t131 -53t53 -133q0 -78 -53 -132 t-131 -54t-132.5 54t-54.5 132z" />
<glyph unicode="&#xd0;" horiz-adv-x="1716" d="M92 0v305h160v326h-148v188h148v297h-150v303h799q211 0 349.5 -56t219 -152.5t112.5 -225.5t32 -272q0 -139 -37 -268.5t-121 -227.5t-220 -157.5t-335 -59.5h-809zM750 305h102q72 0 117 35t71.5 92t35.5 130t9 149q0 78 -10 151.5t-37.5 130t-77 90t-124.5 33.5h-86 v-297h145v-188h-145v-326z" />
<glyph unicode="&#xd1;" horiz-adv-x="1937" d="M92 0v305h144v811h-144v303h674l240 -377l231 -383h8v457h-135v303h735v-303h-139v-1116h-489l-308 475l-215 348h-4v-518h137v-305h-735zM465 1659q51 143 117.5 194.5t146.5 51.5q55 0 112.5 -11.5t115 -26t112.5 -25.5t107 -11l112 84l123 -92q-43 -131 -104.5 -192.5 t-153.5 -61.5q-61 0 -124.5 12t-124 26.5t-113 27t-89.5 12.5l-110 -80z" />
<glyph unicode="&#xd2;" horiz-adv-x="1730" d="M102 717q0 160 48.5 295t143.5 232t237.5 152.5t332.5 55.5t332.5 -55.5t239 -152.5t144.5 -232t48 -295t-48 -296t-144.5 -235.5t-238.5 -155t-333 -55.5q-190 0 -332.5 55.5t-237.5 155t-143.5 235.5t-48.5 296zM496 1815l196 245l389 -372l-133 -160zM629 717 q0 -92 11 -168t39 -129t73 -83t112 -30q68 0 112 29t71.5 82t39 129t11.5 170q0 88 -11.5 161.5t-39 127t-71.5 82t-112 28.5t-112.5 -31.5t-72.5 -86t-39 -127t-11 -154.5z" />
<glyph unicode="&#xd3;" horiz-adv-x="1730" d="M102 717q0 160 48.5 295t143.5 232t237.5 152.5t332.5 55.5t332.5 -55.5t239 -152.5t144.5 -232t48 -295t-48 -296t-144.5 -235.5t-238.5 -155t-333 -55.5q-190 0 -332.5 55.5t-237.5 155t-143.5 235.5t-48.5 296zM629 717q0 -92 11 -168t39 -129t73 -83t112 -30 q68 0 112 29t71.5 82t39 129t11.5 170q0 88 -11.5 161.5t-39 127t-71.5 82t-112 28.5t-112.5 -31.5t-72.5 -86t-39 -127t-11 -154.5zM735 1690l387 374l207 -245l-461 -289z" />
<glyph unicode="&#xd4;" horiz-adv-x="1730" d="M102 717q0 160 48.5 295t143.5 232t237.5 152.5t332.5 55.5t332.5 -55.5t239 -152.5t144.5 -232t48 -295t-48 -296t-144.5 -235.5t-238.5 -155t-333 -55.5q-190 0 -332.5 55.5t-237.5 155t-143.5 235.5t-48.5 296zM395 1657l326 332h291l334 -332l-111 -127l-371 209 l-364 -205zM629 717q0 -92 11 -168t39 -129t73 -83t112 -30q68 0 112 29t71.5 82t39 129t11.5 170q0 88 -11.5 161.5t-39 127t-71.5 82t-112 28.5t-112.5 -31.5t-72.5 -86t-39 -127t-11 -154.5z" />
<glyph unicode="&#xd5;" horiz-adv-x="1730" d="M102 717q0 160 48.5 295t143.5 232t237.5 152.5t332.5 55.5t332.5 -55.5t239 -152.5t144.5 -232t48 -295t-48 -296t-144.5 -235.5t-238.5 -155t-333 -55.5q-190 0 -332.5 55.5t-237.5 155t-143.5 235.5t-48.5 296zM391 1663q51 143 117.5 194.5t146.5 51.5 q55 0 112.5 -11.5t115 -25.5t113 -25.5t106.5 -11.5l112 84l123 -92q-43 -131 -104.5 -192.5t-153.5 -61.5q-61 0 -124.5 12t-124 26.5t-112.5 27t-89 12.5l-111 -80zM629 717q0 -92 11 -168t39 -129t73 -83t112 -30q68 0 112 29t71.5 82t39 129t11.5 170q0 88 -11.5 161.5 t-39 127t-71.5 82t-112 28.5t-112.5 -31.5t-72.5 -86t-39 -127t-11 -154.5z" />
<glyph unicode="&#xd6;" horiz-adv-x="1730" d="M102 717q0 160 48.5 295t143.5 232t237.5 152.5t332.5 55.5t332.5 -55.5t239 -152.5t144.5 -232t48 -295t-48 -296t-144.5 -235.5t-238.5 -155t-333 -55.5q-190 0 -332.5 55.5t-237.5 155t-143.5 235.5t-48.5 296zM469 1708q0 80 54.5 133t131.5 53q76 0 130.5 -53 t54.5 -133q0 -39 -14.5 -72.5t-40 -59.5t-59.5 -40t-71 -14q-78 0 -132 54t-54 132zM629 717q0 -92 11 -168t39 -129t73 -83t112 -30q68 0 112 29t71.5 82t39 129t11.5 170q0 88 -11.5 161.5t-39 127t-71.5 82t-112 28.5t-112.5 -31.5t-72.5 -86t-39 -127t-11 -154.5z M905 1708q0 80 54.5 133t132.5 53t131 -53t53 -133q0 -78 -53.5 -132t-130.5 -54q-78 0 -132.5 54t-54.5 132z" />
<glyph unicode="&#xd8;" horiz-adv-x="1730" d="M102 -20l189 208q-94 98 -141.5 233.5t-47.5 295.5t48.5 295t143.5 232t237.5 152.5t332.5 55.5q143 0 258 -30.5t207 -90.5l109 121h194l-194 -211q94 -98 142 -231t48 -293t-48 -296t-144.5 -235.5t-238.5 -155t-333 -55.5q-147 0 -265 34t-210 95l-117 -124h-170z M629 717q0 -41 2 -77t6 -71l405 447q-57 100 -178 100q-68 0 -112.5 -31.5t-72.5 -86t-39 -127t-11 -154.5zM678 420q29 -53 74 -83t112 -30q68 0 112 29t71.5 82t39 129t11.5 170q0 41 -3 76.5t-8 68.5z" />
<glyph unicode="&#xd9;" horiz-adv-x="1726" d="M72 1116v303h708v-303h-108v-604q0 -113 49 -159t149 -46q35 0 69 9.5t59.5 32t42 62.5t16.5 101v604h-109v303h707v-303h-119v-575q0 -274 -157.5 -419t-512.5 -145q-188 0 -317 38t-211 111t-118 177.5t-36 237.5v575h-112zM444 1815l197 245l389 -372l-133 -160z" />
<glyph unicode="&#xda;" horiz-adv-x="1726" d="M72 1116v303h708v-303h-108v-604q0 -113 49 -159t149 -46q35 0 69 9.5t59.5 32t42 62.5t16.5 101v604h-109v303h707v-303h-119v-575q0 -274 -157.5 -419t-512.5 -145q-188 0 -317 38t-211 111t-118 177.5t-36 237.5v575h-112zM721 1690l387 374l207 -245l-461 -289z" />
<glyph unicode="&#xdb;" horiz-adv-x="1726" d="M72 1116v303h708v-303h-108v-604q0 -113 49 -159t149 -46q35 0 69 9.5t59.5 32t42 62.5t16.5 101v604h-109v303h707v-303h-119v-575q0 -274 -157.5 -419t-512.5 -145q-188 0 -317 38t-211 111t-118 177.5t-36 237.5v575h-112zM369 1655l340 325h301l346 -325l-115 -125 l-385 205l-379 -201z" />
<glyph unicode="&#xdc;" horiz-adv-x="1726" d="M72 1116v303h708v-303h-108v-604q0 -113 49 -159t149 -46q35 0 69 9.5t59.5 32t42 62.5t16.5 101v604h-109v303h707v-303h-119v-575q0 -274 -157.5 -419t-512.5 -145q-188 0 -317 38t-211 111t-118 177.5t-36 237.5v575h-112zM463 1708q0 80 54 133t132 53 q76 0 130.5 -53t54.5 -133q0 -39 -14.5 -72.5t-40 -59.5t-59.5 -40t-71 -14q-78 0 -132 54t-54 132zM899 1708q0 80 54.5 133t131.5 53q78 0 131.5 -53t53.5 -133q0 -78 -53.5 -132t-131.5 -54t-132 54t-54 132z" />
<glyph unicode="&#xdd;" horiz-adv-x="1636" d="M31 1114v305h714v-305h-110l186 -330h8l183 330h-113v305h707v-305h-101l-422 -647v-162h150v-305h-844v305h154v162l-414 647h-98zM692 1688l387 374l207 -245l-461 -289z" />
<glyph unicode="&#xde;" horiz-adv-x="1509" d="M88 0v274h160v852h-160v293h784v-293h-129v-51h160q162 0 270.5 -27.5t175 -76.5t94 -117t27.5 -147q0 -86 -34.5 -156t-102 -119t-167 -74.5t-228.5 -23.5l-195 2v-62h129v-274h-784zM743 586h52q80 0 117.5 32.5t37.5 86.5q0 72 -44 100.5t-124 28.5h-39v-248z" />
<glyph unicode="&#xdf;" horiz-adv-x="1628" d="M61 2v295h134v455h-125v235h125v146q0 57 23.5 129.5t88 135t179 105.5t294.5 43q166 0 272.5 -36.5t169 -90t86 -112t23.5 -103.5q0 -76 -32.5 -131t-72.5 -96t-73 -69.5t-33 -49.5q0 -23 34 -48.5t85 -58t109.5 -72.5t109.5 -89t85 -108.5t34 -131.5q0 -195 -136 -286 t-370 -91q-86 0 -163 10.5t-165 32.5v353h263v-113q10 -2 20 -3t21 -1q25 0 44 12t19 47q0 37 -27.5 74t-70.5 75t-91.5 80t-91.5 90t-70.5 101t-27.5 117q0 72 27.5 117t61.5 76.5t61.5 56t27.5 55.5q0 37 -26.5 56.5t-73.5 19.5q-43 0 -69.5 -12.5t-41 -34t-19.5 -49 t-5 -60.5v-1071h-613z" />
<glyph unicode="&#xe0;" horiz-adv-x="1331" d="M61 272q0 33 8.5 78t38 87t86 75t152.5 43l352 41v18q0 49 -27.5 74t-105.5 25q-37 0 -79 -3t-83 -8.5t-78.5 -12.5t-66.5 -15l-68 280q47 18 106.5 35t125 27t134.5 16t132 6q106 0 193.5 -18.5t148 -62.5t93 -115.5t32.5 -175.5v-365h100l15 -270q-31 -16 -72 -27.5 t-86 -20t-89 -12.5t-81 -4q-80 0 -140.5 28t-70.5 111l-4 3q-43 -49 -92 -77t-94 -42.5t-82 -17.5t-56 -3q-104 0 -170.5 31t-104.5 77t-52.5 98t-14.5 97zM248 1409l196 246l390 -373l-134 -160zM557 334q0 -39 14.5 -63.5t55.5 -24.5q39 0 67 28v146l-84 -19 q-35 -8 -44 -29.5t-9 -37.5z" />
<glyph unicode="&#xe1;" horiz-adv-x="1331" d="M61 272q0 33 8.5 78t38 87t86 75t152.5 43l352 41v18q0 49 -27.5 74t-105.5 25q-37 0 -79 -3t-83 -8.5t-78.5 -12.5t-66.5 -15l-68 280q47 18 106.5 35t125 27t134.5 16t132 6q106 0 193.5 -18.5t148 -62.5t93 -115.5t32.5 -175.5v-365h100l15 -270q-31 -16 -72 -27.5 t-86 -20t-89 -12.5t-81 -4q-80 0 -140.5 28t-70.5 111l-4 3q-43 -49 -92 -77t-94 -42.5t-82 -17.5t-56 -3q-104 0 -170.5 31t-104.5 77t-52.5 98t-14.5 97zM500 1282l387 375l207 -246l-461 -289zM557 334q0 -39 14.5 -63.5t55.5 -24.5q39 0 67 28v146l-84 -19 q-35 -8 -44 -29.5t-9 -37.5z" />
<glyph unicode="&#xe2;" horiz-adv-x="1331" d="M61 272q0 33 8.5 78t38 87t86 75t152.5 43l352 41v18q0 49 -27.5 74t-105.5 25q-37 0 -79 -3t-83 -8.5t-78.5 -12.5t-66.5 -15l-68 280q47 18 106.5 35t125 27t134.5 16t132 6q106 0 193.5 -18.5t148 -62.5t93 -115.5t32.5 -175.5v-365h100l15 -270q-31 -16 -72 -27.5 t-86 -20t-89 -12.5t-81 -4q-80 0 -140.5 28t-70.5 111l-4 3q-43 -49 -92 -77t-94 -42.5t-82 -17.5t-56 -3q-104 0 -170.5 31t-104.5 77t-52.5 98t-14.5 97zM188 1225l326 331h291l334 -331l-111 -127l-371 209l-364 -205zM557 334q0 -39 14.5 -63.5t55.5 -24.5q39 0 67 28 v146l-84 -19q-35 -8 -44 -29.5t-9 -37.5z" />
<glyph unicode="&#xe3;" horiz-adv-x="1331" d="M61 272q0 33 8.5 78t38 87t86 75t152.5 43l352 41v18q0 49 -27.5 74t-105.5 25q-37 0 -79 -3t-83 -8.5t-78.5 -12.5t-66.5 -15l-68 280q47 18 106.5 35t125 27t134.5 16t132 6q106 0 193.5 -18.5t148 -62.5t93 -115.5t32.5 -175.5v-365h100l15 -270q-31 -16 -72 -27.5 t-86 -20t-89 -12.5t-81 -4q-80 0 -140.5 28t-70.5 111l-4 3q-43 -49 -92 -77t-94 -42.5t-82 -17.5t-56 -3q-104 0 -170.5 31t-104.5 77t-52.5 98t-14.5 97zM193 1262q51 143 117.5 194t146.5 51q55 0 112.5 -11t114.5 -25.5t112.5 -25.5t106.5 -11l113 84l123 -93 q-43 -131 -104.5 -192.5t-153.5 -61.5q-61 0 -125 12.5t-124.5 27t-112.5 26.5t-89 12l-111 -80zM557 334q0 -39 14.5 -63.5t55.5 -24.5q39 0 67 28v146l-84 -19q-35 -8 -44 -29.5t-9 -37.5z" />
<glyph unicode="&#xe4;" horiz-adv-x="1331" d="M61 272q0 33 8.5 78t38 87t86 75t152.5 43l352 41v18q0 49 -27.5 74t-105.5 25q-37 0 -79 -3t-83 -8.5t-78.5 -12.5t-66.5 -15l-68 280q47 18 106.5 35t125 27t134.5 16t132 6q106 0 193.5 -18.5t148 -62.5t93 -115.5t32.5 -175.5v-365h100l15 -270q-31 -16 -72 -27.5 t-86 -20t-89 -12.5t-81 -4q-80 0 -140.5 28t-70.5 111l-4 3q-43 -49 -92 -77t-94 -42.5t-82 -17.5t-56 -3q-104 0 -170.5 31t-104.5 77t-52.5 98t-14.5 97zM219 1329q0 43 15.5 80t42 63.5t63.5 42t78 15.5t76.5 -15.5t63.5 -42t43 -63.5t15 -80q0 -41 -15 -78t-43 -63.5 t-63.5 -42t-76.5 -15.5q-84 0 -141.5 57.5t-57.5 141.5zM557 334q0 -39 14.5 -63.5t55.5 -24.5q39 0 67 28v146l-84 -19q-35 -8 -44 -29.5t-9 -37.5zM686 1329q0 43 15.5 80t43 63.5t63.5 42t79 15.5q84 0 140 -57.5t56 -143.5q0 -84 -56 -141.5t-140 -57.5 q-86 0 -143.5 57.5t-57.5 141.5z" />
<glyph unicode="&#xe5;" horiz-adv-x="1331" d="M61 272q0 33 8.5 78t38 87t86 75t152.5 43l352 41v18q0 49 -27.5 74t-105.5 25q-37 0 -79 -3t-83 -8.5t-78.5 -12.5t-66.5 -15l-68 280q47 18 106.5 35t125 27t134.5 16t132 6q106 0 193.5 -18.5t148 -62.5t93 -115.5t32.5 -175.5v-365h100l15 -270q-31 -16 -72 -27.5 t-86 -20t-89 -12.5t-81 -4q-80 0 -140.5 28t-70.5 111l-4 3q-43 -49 -92 -77t-94 -42.5t-82 -17.5t-56 -3q-104 0 -170.5 31t-104.5 77t-52.5 98t-14.5 97zM381 1425q0 59 23.5 113.5t65.5 95.5t97.5 64.5t120.5 23.5q66 0 121 -23.5t94 -64.5t60.5 -94t21.5 -115 q0 -61 -23.5 -115.5t-63.5 -94t-94.5 -62.5t-115.5 -23q-66 0 -121 24t-97 63.5t-65.5 93t-23.5 114.5zM557 334q0 -39 14.5 -63.5t55.5 -24.5q39 0 67 28v146l-84 -19q-35 -8 -44 -29.5t-9 -37.5zM584 1419q0 -35 26.5 -66.5t77.5 -31.5q45 0 69.5 31.5t24.5 66.5 q0 41 -23.5 73t-70.5 32q-45 0 -74.5 -32t-29.5 -73z" />
<glyph unicode="&#xe6;" horiz-adv-x="1875" d="M61 272q0 33 7.5 88.5t43 106.5t110.5 89t210 38h307v20q0 49 -37.5 74t-121.5 25q-106 0 -195.5 -11.5t-146.5 -27.5l-68 280q47 18 107.5 35t128 27t137 16t133.5 6q35 0 80 -6t88 -18.5t81 -30.5t60 -45q114 102 307 102q143 0 240.5 -41t155 -111.5t82 -162.5 t24.5 -195v-84h-590q0 -47 12.5 -74.5t36 -42t59.5 -18.5t83 -4q66 0 146.5 15.5t146.5 35.5l84 -276q-55 -31 -117 -51.5t-124.5 -32.5t-122.5 -17.5t-112 -5.5q-90 0 -156.5 8.5t-117.5 27t-89 47t-69 67.5q-47 -47 -99 -78t-106.5 -48t-110.5 -23.5t-108 -6.5 q-117 0 -190.5 31t-115.5 77t-57.5 98t-15.5 97zM553 342q0 -53 27.5 -71.5t62.5 -18.5q20 0 54 10t59 39q-10 35 -15.5 68.5t-7.5 70.5h-43q-66 0 -101.5 -25.5t-35.5 -72.5zM1210 598h166q0 59 -15.5 95t-62.5 36t-67.5 -38t-20.5 -93z" />
<glyph unicode="&#xe7;" horiz-adv-x="1153" d="M82 502q0 102 25.5 198.5t92 172t183.5 120.5t299 45q86 0 179 -11t179 -40l-2 -371h-303v101q-49 4 -80.5 -9.5t-50 -40t-26 -64.5t-7.5 -83q0 -70 14.5 -110.5t41 -63t61.5 -30t78 -7.5q29 0 63.5 4t69.5 9.5t65.5 11.5t53.5 10l74 -291q-82 -39 -182.5 -57.5 t-200.5 -22.5l-50 -67q106 -23 159.5 -77t53.5 -138q0 -35 -19 -77t-70.5 -79t-137.5 -61.5t-217 -26.5l-8 160q113 10 167 35.5t54 60.5q0 31 -29.5 40t-64.5 9q-20 0 -37.5 -1t-32.5 -3l-47 72l117 160q-143 14 -233.5 63t-141.5 121t-70.5 160t-19.5 178z" />
<glyph unicode="&#xe8;" horiz-adv-x="1253" d="M82 504q0 111 30.5 208t99.5 169.5t178 115.5t265 43q147 0 246.5 -41t160 -111.5t85 -162.5t24.5 -195v-67h-606q0 -47 12.5 -78t37 -48.5t61.5 -23.5t84 -6q68 0 150.5 15.5t150.5 35.5l88 -276q-57 -31 -120.5 -51.5t-128 -32.5t-126 -17.5t-115.5 -5.5 q-178 0 -289.5 45.5t-176 119t-88 168.5t-23.5 196zM248 1409l196 246l390 -373l-134 -160zM571 598h170q0 59 -16 95t-63 36q-49 0 -70 -38t-21 -93z" />
<glyph unicode="&#xe9;" horiz-adv-x="1253" d="M82 504q0 111 30.5 208t99.5 169.5t178 115.5t265 43q147 0 246.5 -41t160 -111.5t85 -162.5t24.5 -195v-67h-606q0 -47 12.5 -78t37 -48.5t61.5 -23.5t84 -6q68 0 150.5 15.5t150.5 35.5l88 -276q-57 -31 -120.5 -51.5t-128 -32.5t-126 -17.5t-115.5 -5.5 q-178 0 -289.5 45.5t-176 119t-88 168.5t-23.5 196zM489 1282l388 375l206 -246l-460 -289zM571 598h170q0 59 -16 95t-63 36q-49 0 -70 -38t-21 -93z" />
<glyph unicode="&#xea;" horiz-adv-x="1253" d="M82 504q0 111 30.5 208t99.5 169.5t178 115.5t265 43q147 0 246.5 -41t160 -111.5t85 -162.5t24.5 -195v-67h-606q0 -47 12.5 -78t37 -48.5t61.5 -23.5t84 -6q68 0 150.5 15.5t150.5 35.5l88 -276q-57 -31 -120.5 -51.5t-128 -32.5t-126 -17.5t-115.5 -5.5 q-178 0 -289.5 45.5t-176 119t-88 168.5t-23.5 196zM195 1225l325 331h291l334 -331l-111 -127l-370 209l-365 -205zM571 598h170q0 59 -16 95t-63 36q-49 0 -70 -38t-21 -93z" />
<glyph unicode="&#xeb;" horiz-adv-x="1253" d="M82 504q0 111 30.5 208t99.5 169.5t178 115.5t265 43q147 0 246.5 -41t160 -111.5t85 -162.5t24.5 -195v-67h-606q0 -47 12.5 -78t37 -48.5t61.5 -23.5t84 -6q68 0 150.5 15.5t150.5 35.5l88 -276q-57 -31 -120.5 -51.5t-128 -32.5t-126 -17.5t-115.5 -5.5 q-178 0 -289.5 45.5t-176 119t-88 168.5t-23.5 196zM193 1329q0 43 15 80t41.5 63.5t63.5 42t78 15.5t77 -15.5t63.5 -42t43 -63.5t15.5 -80q0 -41 -15.5 -78t-43 -63.5t-63.5 -42t-77 -15.5q-84 0 -141 57.5t-57 141.5zM571 598h170q0 59 -16 95t-63 36q-49 0 -70 -38 t-21 -93zM659 1329q0 43 15.5 80t43 63.5t63.5 42t79 15.5q84 0 140.5 -57.5t56.5 -143.5q0 -84 -56.5 -141.5t-140.5 -57.5q-86 0 -143.5 57.5t-57.5 141.5z" />
<glyph unicode="&#xec;" horiz-adv-x="888" d="M14 1409l197 246l389 -373l-133 -160zM82 721v293h588v-701h137v-284q-72 -29 -161 -43.5t-161 -14.5q-88 0 -146 17.5t-93 51.5t-49.5 83t-14.5 113v485h-100z" />
<glyph unicode="&#xed;" horiz-adv-x="888" d="M82 721v293h588v-701h137v-284q-72 -29 -161 -43.5t-161 -14.5q-88 0 -146 17.5t-93 51.5t-49.5 83t-14.5 113v485h-100zM262 1282l387 375l207 -246l-461 -289z" />
<glyph unicode="&#xee;" horiz-adv-x="888" d="M-74 1225l326 331h291l334 -331l-111 -127l-371 209l-364 -205zM82 721v293h588v-701h137v-284q-72 -29 -161 -43.5t-161 -14.5q-88 0 -146 17.5t-93 51.5t-49.5 83t-14.5 113v485h-100z" />
<glyph unicode="&#xef;" horiz-adv-x="888" d="M-49 1329q0 43 15.5 80t42 63.5t63.5 42t78 15.5t76.5 -15.5t63 -42t43 -63.5t15.5 -80q0 -41 -15.5 -78t-43 -63.5t-63.5 -42t-76 -15.5q-84 0 -141.5 57.5t-57.5 141.5zM82 721v293h588v-701h137v-284q-72 -29 -161 -43.5t-161 -14.5q-88 0 -146 17.5t-93 51.5 t-49.5 83t-14.5 113v485h-100zM418 1329q0 43 15.5 80t43 63.5t63 42t78.5 15.5q84 0 140.5 -57.5t56.5 -143.5q0 -84 -56.5 -141.5t-140.5 -57.5q-86 0 -143 57.5t-57 141.5z" />
<glyph unicode="&#xf0;" horiz-adv-x="1406" d="M82 481q0 102 40 193.5t111.5 160t171 108.5t218.5 40q33 0 83 -5t99 -30q-18 66 -49 119t-72 100l-170 -112l-72 110l140 92q-63 45 -150 91l117 227q88 -29 166 -61.5t147 -71.5l162 108l78 -108l-117 -76q193 -139 274.5 -335.5t59.5 -475.5q-8 -94 -39 -196.5 t-102.5 -186.5t-192.5 -139.5t-305 -55.5q-168 0 -281.5 43t-184.5 114t-101.5 161t-30.5 186zM575 502q0 -35 4.5 -72t16.5 -67.5t35.5 -50t64.5 -19.5t68 22.5t42 58.5t21.5 82t6.5 95v44t-3 44q-29 16 -60 28.5t-64 12.5q-41 0 -66 -14.5t-40 -39t-20.5 -57t-5.5 -67.5z " />
<glyph unicode="&#xf1;" horiz-adv-x="1529" d="M61 725v291h592v-88l13 -4q72 53 152.5 84.5t158.5 31.5q375 0 375 -378v-349h116v-284q-72 -29 -150.5 -43.5t-150.5 -14.5q-88 0 -146 17.5t-93 51.5t-49.5 83t-14.5 113v325q0 66 -27.5 92.5t-74.5 26.5q-20 0 -47 -11.5t-49 -33.5v-635h-490v725h-115zM219 1262 q51 143 117.5 194t146.5 51q55 0 112.5 -11t115 -25.5t113 -25.5t106.5 -11l112 84l123 -93q-43 -131 -104.5 -192.5t-153.5 -61.5q-61 0 -124.5 12.5t-124 27t-112.5 26.5t-89 12l-111 -80z" />
<glyph unicode="&#xf2;" horiz-adv-x="1394" d="M82 510q0 117 38 214t114.5 165.5t192.5 107.5t269 39q154 0 268.5 -39t192.5 -107.5t117 -165.5t39 -214q0 -119 -39 -216t-117 -168t-192.5 -110t-268.5 -39t-269.5 39t-192 110t-114.5 168t-38 216zM256 1409l197 246l389 -373l-133 -160zM578 510q0 -96 24.5 -156.5 t93.5 -60.5q70 0 94.5 58.5t24.5 158.5q0 92 -24.5 148.5t-94.5 56.5q-35 0 -57.5 -16.5t-36.5 -45t-19 -65.5t-5 -78z" />
<glyph unicode="&#xf3;" horiz-adv-x="1394" d="M82 510q0 117 38 214t114.5 165.5t192.5 107.5t269 39q154 0 268.5 -39t192.5 -107.5t117 -165.5t39 -214q0 -119 -39 -216t-117 -168t-192.5 -110t-268.5 -39t-269.5 39t-192 110t-114.5 168t-38 216zM565 1282l387 375l207 -246l-461 -289zM578 510q0 -96 24.5 -156.5 t93.5 -60.5q70 0 94.5 58.5t24.5 158.5q0 92 -24.5 148.5t-94.5 56.5q-35 0 -57.5 -16.5t-36.5 -45t-19 -65.5t-5 -78z" />
<glyph unicode="&#xf4;" horiz-adv-x="1394" d="M82 510q0 117 38 214t114.5 165.5t192.5 107.5t269 39q154 0 268.5 -39t192.5 -107.5t117 -165.5t39 -214q0 -119 -39 -216t-117 -168t-192.5 -110t-268.5 -39t-269.5 39t-192 110t-114.5 168t-38 216zM223 1225l326 331h291l334 -331l-111 -127l-371 209l-364 -205z M578 510q0 -96 24.5 -156.5t93.5 -60.5q70 0 94.5 58.5t24.5 158.5q0 92 -24.5 148.5t-94.5 56.5q-35 0 -57.5 -16.5t-36.5 -45t-19 -65.5t-5 -78z" />
<glyph unicode="&#xf5;" horiz-adv-x="1394" d="M82 510q0 117 38 214t114.5 165.5t192.5 107.5t269 39q154 0 268.5 -39t192.5 -107.5t117 -165.5t39 -214q0 -119 -39 -216t-117 -168t-192.5 -110t-268.5 -39t-269.5 39t-192 110t-114.5 168t-38 216zM225 1229q51 143 118 194.5t146 51.5q55 0 112.5 -11.5t115 -26 t113 -25.5t106.5 -11l113 84l122 -92q-43 -131 -104.5 -192.5t-153.5 -61.5q-61 0 -124.5 12t-124 26.5t-112.5 27t-89 12.5l-111 -80zM578 510q0 -96 24.5 -156.5t93.5 -60.5q70 0 94.5 58.5t24.5 158.5q0 92 -24.5 148.5t-94.5 56.5q-35 0 -57.5 -16.5t-36.5 -45 t-19 -65.5t-5 -78z" />
<glyph unicode="&#xf6;" horiz-adv-x="1394" d="M82 510q0 117 38 214t114.5 165.5t192.5 107.5t269 39q154 0 268.5 -39t192.5 -107.5t117 -165.5t39 -214q0 -119 -39 -216t-117 -168t-192.5 -110t-268.5 -39t-269.5 39t-192 110t-114.5 168t-38 216zM262 1329q0 43 15.5 80t42 63.5t63.5 42t78 15.5t76.5 -15.5 t63.5 -42t43 -63.5t15 -80q0 -41 -15 -78t-43 -63.5t-63.5 -42t-76.5 -15.5q-84 0 -141.5 57.5t-57.5 141.5zM578 510q0 -96 24.5 -156.5t93.5 -60.5q70 0 94.5 58.5t24.5 158.5q0 92 -24.5 148.5t-94.5 56.5q-35 0 -57.5 -16.5t-36.5 -45t-19 -65.5t-5 -78zM729 1329 q0 43 15.5 80t43 63.5t63.5 42t79 15.5q84 0 140 -57.5t56 -143.5q0 -84 -56 -141.5t-140 -57.5q-86 0 -143.5 57.5t-57.5 141.5z" />
<glyph unicode="&#xf7;" d="M199 508v254h954v-254h-954zM487 240q0 39 14.5 72.5t40 59t60.5 40t74 14.5q78 0 132 -54t54 -132t-54 -133.5t-132 -55.5q-39 0 -74 15.5t-60.5 41t-40 59.5t-14.5 73zM487 1030q0 39 14.5 73t40 59.5t60.5 40t74 14.5q78 0 132 -54.5t54 -132.5t-54 -132t-132 -54 q-39 0 -74 14t-60.5 40t-40 59.5t-14.5 72.5z" />
<glyph unicode="&#xf8;" horiz-adv-x="1394" d="M78 -16l149 147q-74 72 -109.5 167t-35.5 212t38 214t114.5 165.5t192.5 107.5t269 39q219 0 367 -82l82 82h170l-154 -151q152 -139 152 -375q0 -119 -39 -216t-117 -168t-192.5 -110t-268.5 -39q-227 0 -372 84l-78 -77h-168zM578 477l200 199q-29 39 -82 39 q-35 0 -57.5 -16.5t-36.5 -45t-19 -65.5t-5 -78v-33zM608 342q29 -49 88 -49q70 0 94.5 58.5t24.5 158.5v33z" />
<glyph unicode="&#xf9;" horiz-adv-x="1505" d="M61 721v293h605v-565q0 -59 19.5 -83t66.5 -24q10 0 37.5 10t50.5 37v334h-84v293h571v-703h117v-286q-111 -37 -189.5 -46.5t-126.5 -9.5q-133 0 -189 44t-73 114q-66 -66 -147.5 -112t-192.5 -46q-76 0 -139 20.5t-109.5 63.5t-73 110.5t-26.5 162.5v393h-117z M303 1409l197 246l389 -373l-133 -160z" />
<glyph unicode="&#xfa;" horiz-adv-x="1505" d="M61 721v293h605v-565q0 -59 19.5 -83t66.5 -24q10 0 37.5 10t50.5 37v334h-84v293h571v-703h117v-286q-111 -37 -189.5 -46.5t-126.5 -9.5q-133 0 -189 44t-73 114q-66 -66 -147.5 -112t-192.5 -46q-76 0 -139 20.5t-109.5 63.5t-73 110.5t-26.5 162.5v393h-117z M606 1282l387 375l207 -246l-461 -289z" />
<glyph unicode="&#xfb;" horiz-adv-x="1505" d="M61 721v293h605v-565q0 -59 19.5 -83t66.5 -24q10 0 37.5 10t50.5 37v334h-84v293h571v-703h117v-286q-111 -37 -189.5 -46.5t-126.5 -9.5q-133 0 -189 44t-73 114q-66 -66 -147.5 -112t-192.5 -46q-76 0 -139 20.5t-109.5 63.5t-73 110.5t-26.5 162.5v393h-117z M276 1225l326 331h291l334 -331l-111 -127l-371 209l-364 -205z" />
<glyph unicode="&#xfc;" horiz-adv-x="1505" d="M61 721v293h605v-565q0 -59 19.5 -83t66.5 -24q10 0 37.5 10t50.5 37v334h-84v293h571v-703h117v-286q-111 -37 -189.5 -46.5t-126.5 -9.5q-133 0 -189 44t-73 114q-66 -66 -147.5 -112t-192.5 -46q-76 0 -139 20.5t-109.5 63.5t-73 110.5t-26.5 162.5v393h-117z M293 1329q0 43 15.5 80t42 63.5t63.5 42t78 15.5t76.5 -15.5t63 -42t43 -63.5t15.5 -80q0 -41 -15.5 -78t-43 -63.5t-63.5 -42t-76 -15.5q-84 0 -141.5 57.5t-57.5 141.5zM760 1329q0 43 15.5 80t43 63.5t63.5 42t79 15.5q84 0 140 -57.5t56 -143.5q0 -84 -56.5 -141.5 t-139.5 -57.5q-86 0 -143.5 57.5t-57.5 141.5z" />
<glyph unicode="&#xfd;" horiz-adv-x="1443" d="M31 690v324h469l137 -471l65 -244h9l80 262l49 160h-82v293h645v-293h-86l-393 -979q-18 -43 -42 -81t-59 -65.5t-84 -43t-116 -15.5q-23 0 -69 3t-101.5 11.5t-116 21.5t-111.5 32l51 301q45 -6 82 -10.5t66 -4.5q61 0 97 23t59 86l18 53h-229l-238 637h-100zM549 1282 l387 375l207 -246l-461 -289z" />
<glyph unicode="&#xfe;" horiz-adv-x="1480" d="M59 1126v291h588v-467l6 -2q39 25 81 42.5t81 26.5t72 13t53 4q133 0 221 -39t141.5 -106.5t75 -159.5t21.5 -199q0 -121 -24.5 -222t-80 -174t-146.5 -113.5t-222 -40.5q-20 0 -52 3t-69 9t-75 15t-68 22v-174h116v-291h-717v291h115v1271h-117zM664 342 q39 -18 69.5 -25.5t59.5 -7.5q14 0 35.5 6.5t42 28t34 63.5t13.5 113q0 70 -12.5 109t-32 57.5t-42 21.5t-43.5 3q-23 0 -56.5 -9.5t-67.5 -27.5v-332z" />
<glyph unicode="&#xff;" horiz-adv-x="1443" d="M31 690v324h469l137 -471l65 -244h9l80 262l49 160h-82v293h645v-293h-86l-393 -979q-18 -43 -42 -81t-59 -65.5t-84 -43t-116 -15.5q-23 0 -69 3t-101.5 11.5t-116 21.5t-111.5 32l51 301q45 -6 82 -10.5t66 -4.5q61 0 97 23t59 86l18 53h-229l-238 637h-100zM240 1329 q0 43 15 80t42 63.5t63.5 42t77.5 15.5t77 -15.5t63.5 -42t43 -63.5t15.5 -80q0 -41 -15.5 -78t-43 -63.5t-63.5 -42t-77 -15.5q-84 0 -141 57.5t-57 141.5zM707 1329q0 43 15 80t43 63.5t63.5 42t78.5 15.5q84 0 140.5 -57.5t56.5 -143.5q0 -84 -56.5 -141.5t-140.5 -57.5 q-86 0 -143 57.5t-57 141.5z" />
<glyph unicode="&#x131;" horiz-adv-x="888" d="M82 721v293h588v-701h137v-284q-72 -29 -161 -43.5t-161 -14.5q-88 0 -146 17.5t-93 51.5t-49.5 83t-14.5 113v485h-100z" />
<glyph unicode="&#x152;" horiz-adv-x="2125" d="M82 717q0 160 48 295t143.5 232t237.5 152.5t333 55.5q72 0 138.5 -8t125.5 -25h940v-555h-334v252h-334v-252h232v-282h-232v-277h351v277h333v-582h-993q-104 -25 -227 -25q-190 0 -332.5 55.5t-238 155t-143.5 235.5t-48 296zM608 717q0 -92 11.5 -168t39 -129 t72.5 -83t113 -30h19t20 2v803q-16 4 -25 4h-29q-63 -4 -106 -36.5t-68.5 -87t-36 -125t-10.5 -150.5z" />
<glyph unicode="&#x153;" horiz-adv-x="1968" d="M68 510q0 117 38.5 214t115.5 165.5t192.5 107.5t269.5 39q106 0 195.5 -22.5t156.5 -71.5q61 55 151.5 82t207.5 27q147 0 246.5 -41t160 -111t85 -162t24.5 -194v-68h-606q0 -96 50 -127t144 -31q68 0 151 15.5t150 36.5l90 -275q-57 -31 -121.5 -51t-129 -33.5 t-126 -18.5t-114.5 -5q-223 0 -350 90q-72 -47 -163 -73t-202 -26q-154 0 -269.5 39t-192.5 110t-115.5 168t-38.5 216zM565 510q0 -96 24.5 -156.5t94.5 -60.5t94.5 58.5t24.5 158.5q0 92 -24.5 148.5t-94.5 56.5q-35 0 -57.5 -16.5t-37 -45t-19.5 -65.5t-5 -78zM1311 610 h172q-2 59 -18.5 95t-63.5 36q-49 0 -69.5 -37.5t-20.5 -93.5z" />
<glyph unicode="&#x178;" horiz-adv-x="1636" d="M31 1114v305h714v-305h-110l186 -330h8l183 330h-113v305h707v-305h-101l-422 -647v-162h150v-305h-844v305h154v162l-414 647h-98zM399 1708q0 80 54.5 133t132.5 53q76 0 130 -53t54 -133q0 -39 -14.5 -72.5t-40 -59.5t-59 -40t-70.5 -14q-78 0 -132.5 54t-54.5 132z M836 1708q0 80 54 133t132 53t131 -53t53 -133q0 -78 -53 -132t-131 -54t-132 54t-54 132z" />
<glyph unicode="&#x192;" d="M39 -182l78 307q47 -8 76.5 -11t64.5 -3q37 0 64.5 5t48 23.5t34 52t21.5 91.5q10 84 18.5 146.5t12.5 115.5h-154v280h182q2 16 3 32.5t6 35.5q10 76 29.5 166t70.5 169t146.5 131t254.5 52q66 0 158 -8t184 -37l-77 -307q-47 8 -75 11t-63 3q-37 0 -65.5 -5t-49 -23.5 t-33.5 -52.5t-20 -91q-4 -20 -5 -39.5t-5 -36.5h203v-280h-227q-6 -59 -14.5 -124t-20.5 -149q-10 -66 -28.5 -151.5t-70 -163.5t-146.5 -131t-255 -53q-66 0 -160 8t-186 37z" />
<glyph unicode="&#x2c6;" horiz-adv-x="1331" d="M188 1225l326 331h291l334 -331l-111 -127l-371 209l-364 -205z" />
<glyph unicode="&#x2c7;" horiz-adv-x="1331" d="M190 1460l105 123l364 -205l371 209l111 -127l-334 -332h-291z" />
<glyph unicode="&#x2d8;" horiz-adv-x="1331" d="M217 1444l160 131q39 -53 81 -90t81 -60.5t73.5 -34t61.5 -10.5q18 0 44.5 2t67.5 18.5t96.5 53.5t133.5 109l119 -121q-55 -92 -114.5 -153.5t-121 -98.5t-121 -52.5t-112.5 -15.5q-70 0 -133.5 24.5t-120 67.5t-105.5 101.5t-90 128.5z" />
<glyph unicode="&#x2d9;" horiz-adv-x="1331" d="M416 1372q0 47 17.5 89t48 74t72.5 50.5t91 18.5q47 0 90 -18.5t75 -50.5t50.5 -74t18.5 -89q0 -49 -18.5 -91t-50.5 -72.5t-75 -49t-90 -18.5q-49 0 -91 18.5t-72.5 49t-48 72.5t-17.5 91z" />
<glyph unicode="&#x2da;" horiz-adv-x="1331" d="M387 1425q0 59 23.5 113.5t65.5 95.5t97.5 64.5t120.5 23.5q66 0 121 -23.5t94 -64.5t60.5 -94t21.5 -115q0 -61 -23.5 -115.5t-63.5 -94t-94.5 -62.5t-115.5 -23q-66 0 -121 24t-97 63.5t-65.5 93t-23.5 114.5zM590 1419q0 -35 26.5 -66.5t77.5 -31.5q45 0 69.5 31.5 t24.5 66.5q0 41 -23.5 73t-70.5 32q-45 0 -74.5 -32t-29.5 -73z" />
<glyph unicode="&#x2db;" horiz-adv-x="1331" d="M692 -381q0 37 11.5 86t43 104.5t87 115t143.5 118.5l74 -53q-47 -66 -83 -138.5t-36 -132.5q0 -49 22.5 -73.5t58.5 -32.5t82 -2t95 16l41 -129q-68 -37 -143.5 -56.5t-143.5 -19.5q-125 0 -188.5 52.5t-63.5 144.5z" />
<glyph unicode="&#x2dc;" horiz-adv-x="1331" d="M207 1235q51 143 117.5 194.5t146.5 51.5q55 0 112.5 -11.5t115 -25.5t112.5 -25.5t107 -11.5l112 84l123 -92q-43 -131 -104.5 -192.5t-153.5 -61.5q-61 0 -124.5 12t-124 26.5t-113 27t-89.5 12.5l-110 -80z" />
<glyph unicode="&#x2dd;" horiz-adv-x="1331" d="M274 1247l308 443l249 -201l-397 -373zM707 1247l307 443l250 -201l-398 -373z" />
<glyph unicode="&#x3a9;" horiz-adv-x="1753" d="M51 0v305h207l6 10q-78 66 -112.5 172.5t-34.5 249.5q0 158 50 290t146.5 227.5t237.5 148.5t323 53t327 -51t244 -143.5t152.5 -222.5t53.5 -287q0 -123 -35 -239t-113 -194v-14h189v-305h-736v309q41 14 72 40t51.5 72t30.5 118.5t10 183.5t-16.5 186.5t-47 121.5 t-74.5 65.5t-99 19.5q-117 0 -178.5 -96t-61.5 -297q0 -102 9.5 -174t27.5 -120t47 -75.5t68 -42.5v-311h-744z" />
<glyph unicode="&#x3c0;" horiz-adv-x="1517" d="M66 723v287h1384v-287h-113v-410h138v-284q-72 -29 -161 -43.5t-161 -14.5q-88 0 -146.5 17.5t-93 51.5t-49 83t-14.5 113v487h-201v-723h-479v723h-104z" />
<glyph unicode="&#x401;" horiz-adv-x="1589" d="M92 0v305h152v811h-152v303h1399v-555h-334v252h-416v-252l314 6v-295l-314 7v-277h433v277h333v-582h-1415zM426 1708q0 80 54.5 133t131.5 53q76 0 130.5 -53t54.5 -133q0 -39 -14.5 -72.5t-40 -59.5t-59.5 -40t-71 -14q-78 0 -132 54t-54 132zM862 1708q0 80 54.5 133 t132.5 53t131 -53t53 -133q0 -78 -53.5 -132t-130.5 -54q-78 0 -132.5 54t-54.5 132z" />
<glyph unicode="&#x402;" horiz-adv-x="2025" d="M41 987v432h1597v-432h-329v129h-287v-274q78 23 169 35t183 12q109 0 211.5 -22.5t182 -76t128 -142.5t48.5 -224q0 -133 -46.5 -249t-117 -209t-153.5 -162.5t-157 -112.5l-210 252q66 72 112.5 164t46.5 231q0 66 -15 108.5t-43 68.5t-64.5 36t-79.5 10 q-47 0 -97.5 -9t-97.5 -24v-223h162v-305h-803v305h149v811h-159v-129h-330z" />
<glyph unicode="&#x403;" horiz-adv-x="1519" d="M92 0v305h156v811h-156v303h1403v-555h-334v252h-418v-811h185v-305h-836zM631 1692l387 374l207 -245l-461 -289z" />
<glyph unicode="&#x404;" horiz-adv-x="1482" d="M102 711q0 143 33 277t120 237.5t241.5 166t400.5 62.5q109 0 215.5 -14.5t206.5 -42.5v-461h-338v149q-37 6 -76 7q-127 0 -187.5 -60.5t-78.5 -167.5l342 6v-295l-342 7q14 -72 45 -115t76 -65.5t103.5 -28.5t125.5 -6q23 0 64 3t89 8t96 12t83 13l70 -342 q-55 -23 -122 -38t-135.5 -26t-138 -16.5t-131.5 -5.5q-236 0 -384 63.5t-232 167t-115 235.5t-31 270z" />
<glyph unicode="&#x405;" horiz-adv-x="1495" d="M92 965q0 104 36 192t115 151.5t201.5 98.5t296.5 35q61 0 133 -6t142.5 -18.5t139.5 -31t124 -43.5v-395h-336v131q-41 16 -91 22.5t-79 6.5q-84 0 -121 -27.5t-37 -68.5q0 -29 30 -49.5t73 -37t91 -28.5t85 -20q102 -23 194.5 -56t162 -84t110.5 -123.5t41 -175.5 q0 -109 -40 -195.5t-124 -147t-216 -93.5t-318 -33q-141 0 -295 22.5t-295 74.5v419h331v-143q25 -8 58 -13t65.5 -8.5t59 -5.5t43.5 -2q57 0 92 10.5t53.5 23.5t23.5 28.5t5 27.5q0 35 -19.5 54.5t-52.5 29.5q-57 16 -139 34t-168 40q-180 47 -277.5 148.5t-97.5 255.5z " />
<glyph unicode="&#x406;" horiz-adv-x="1087" d="M143 0v305h156v811h-156v303h801v-303h-149v-811h149v-305h-801z" />
<glyph unicode="&#x407;" horiz-adv-x="1087" d="M143 0v305h156v811h-156v303h801v-303h-149v-811h149v-305h-801zM154 1708q0 80 54 133t132 53q76 0 130 -53t54 -133q0 -39 -14 -72.5t-40 -59.5t-59.5 -40t-70.5 -14q-78 0 -132 54t-54 132zM590 1708q0 80 54 133t132 53t131.5 -53t53.5 -133q0 -78 -53.5 -132 t-131.5 -54t-132 54t-54 132z" />
<glyph unicode="&#x408;" horiz-adv-x="1169" d="M-20 -59q137 53 216.5 99t120.5 98t53.5 119t12.5 163v696l-205 2v303h869v-305h-170v-719q0 -342 -201 -549.5t-588 -259.5z" />
<glyph unicode="&#x409;" horiz-adv-x="2402" d="M41 285q111 49 179.5 98t106.5 119.5t50 174t12 261.5v178h-188v303h1462v-303h-152v-209h215q100 0 206 -16.5t192 -63.5t141 -136t55 -232q0 -238 -140 -348.5t-386 -110.5h-905v305h125v811h-178v-96q0 -217 -21.5 -393t-92.5 -311.5t-202 -228.5t-350 -142zM1511 305 h140q66 0 104.5 43t38.5 115q0 66 -36 106.5t-107 40.5h-140v-305z" />
<glyph unicode="&#x40a;" horiz-adv-x="2537" d="M102 0v305h160v811h-160v303h775v-303h-119v-235h391v235h-127v303h776v-303h-151v-225h215q100 0 205.5 -14.5t191.5 -61.5t141.5 -134t55.5 -230q0 -221 -139.5 -336t-387.5 -115h-899v305h119v293h-391v-293h119v-305h-775zM1647 305h139q66 0 104.5 39t38.5 111 q0 66 -35.5 102.5t-107.5 36.5h-139v-289z" />
<glyph unicode="&#x40b;" horiz-adv-x="2109" d="M41 989v430h1575v-430h-330v127h-264v-268q78 20 170 32.5t184 12.5q100 0 195.5 -18.5t169.5 -64.5t118 -123t44 -193v-189h145v-305h-770v305h129v141q0 76 -50 104t-116 28q-61 0 -122.5 -15.5t-96.5 -32.5v-225h125v-305h-776v305h159v811h-159v-127h-330z" />
<glyph unicode="&#x40c;" horiz-adv-x="1796" d="M92 0v305h158v811h-158v301h797v-301h-146v-811h146v-305h-797zM799 635v158l301 499q53 90 116.5 121t153.5 31q164 0 303 -76l-26 -264l-177 -10l-231 -338l287 -439l198 -18v-264q-35 -14 -75.5 -24.5t-79.5 -17.5t-74 -11.5t-55 -4.5q-61 -2 -108.5 3.5t-85.5 20.5 t-68.5 44t-59.5 72zM807 1696l387 375l207 -246l-461 -289z" />
<glyph unicode="&#x40e;" horiz-adv-x="1638" d="M41 1114v305h690v-305h-108l122 -240l89 -184h12l86 201l100 223h-117v305h682v-305h-104l-432 -911q-66 -141 -163 -196.5t-232 -55.5q-80 0 -170 12t-189 41l72 307q66 -12 102.5 -14t63.5 -2q57 0 84 49l30 59h-112l-408 711h-98zM377 1851l160 131q39 -53 80.5 -90 t80.5 -60.5t74 -33.5t62 -10q18 0 44.5 2t67.5 18.5t96.5 53t133.5 108.5l118 -121q-55 -92 -114.5 -153.5t-121 -98t-121 -52t-112.5 -15.5q-70 0 -133 24.5t-119.5 67.5t-105.5 101.5t-90 127.5z" />
<glyph unicode="&#x40f;" horiz-adv-x="1896" d="M92 0v303h160v811h-160v305h785v-305h-129v-811h405v811h-129v305h780v-305h-155v-811h155v-303h-663v-449h-373v449h-676z" />
<glyph unicode="&#x410;" horiz-adv-x="1744" d="M41 0v305h109l436 1114h608l399 -1114h111v-305h-715v305h109l-29 92h-428l-31 -92h115v-305h-684zM741 682h240l-43 135l-66 227h-8l-73 -223z" />
<glyph unicode="&#x411;" horiz-adv-x="1634" d="M92 0v305h154v811h-154v303h1321v-432h-334v129h-336v-209h215q100 0 206 -16.5t192 -63.5t141 -136t55 -232q0 -229 -140 -344t-386 -115h-934zM743 305h146q66 0 101.5 47t35.5 111q0 59 -32.5 103t-104.5 44h-146v-305z" />
<glyph unicode="&#x412;" horiz-adv-x="1634" d="M92 0v305h154v811h-154v303h950q119 0 206 -28.5t145.5 -81t87 -126t28.5 -161.5q0 -23 -8 -58.5t-26.5 -74.5t-48 -76t-74.5 -61v-7q63 -29 103 -71.5t61.5 -88.5t28.5 -89t7 -74q0 -96 -36.5 -174t-104.5 -133.5t-165 -85t-220 -29.5h-934zM743 305h146q66 0 101.5 38 t35.5 97t-32.5 101.5t-104.5 42.5h-146v-279zM743 860h131q55 0 87 37t32 96q0 55 -29.5 89t-89.5 34h-131v-256z" />
<glyph unicode="&#x413;" horiz-adv-x="1519" d="M92 0v305h156v811h-156v303h1403v-555h-334v252h-418v-811h185v-305h-836z" />
<glyph unicode="&#x414;" horiz-adv-x="1789" d="M31 301l143 4q63 74 105.5 149.5t67 169t37.5 212t22 280.5h-179v303h1461v-303h-156v-811l145 -4l11 -696h-355v395h-948v-395h-354v696zM668 305h368v811h-190q-6 -152 -15.5 -271.5t-28 -218t-51 -177t-83.5 -144.5z" />
<glyph unicode="&#x415;" horiz-adv-x="1589" d="M92 0v305h152v811h-152v303h1399v-555h-334v252h-416v-252l314 6v-295l-314 7v-277h433v277h333v-582h-1415z" />
<glyph unicode="&#x416;" horiz-adv-x="2535" d="M61 35v264l220 18l260 422l-248 355l-203 10l-20 264q139 76 313 76q37 0 73 -5t69.5 -19.5t64.5 -41t57 -71.5l324 -531v-158l-309 -501q-59 -90 -138.5 -117t-177.5 -23q-23 0 -56.5 4.5t-72.5 11.5t-80 17t-76 25zM885 0v305h145v811h-145v301h770v-301h-146v-811h146 v-305h-770zM1565 618v158l323 531q27 45 57.5 71.5t64.5 41t70 19.5t72 5q174 0 314 -76l-21 -264l-202 -10l-248 -355l260 -422l219 -18v-264q-35 -14 -76 -24.5t-80 -17.5t-73.5 -11.5t-55.5 -4.5q-98 -4 -177 23t-138 117z" />
<glyph unicode="&#x417;" horiz-adv-x="1419" d="M61 84l97 309q115 -35 216 -51t185 -16q121 0 182.5 36.5t61.5 98.5q0 63 -36 94t-116 31h-198v284h168q84 0 117.5 38t33.5 87q0 76 -51 103.5t-131 27.5q-29 0 -59.5 -3t-63.5 -7v-178h-346v422q74 29 153.5 47t152.5 29.5t133.5 15.5t92.5 4q111 0 223.5 -16.5 t202.5 -61.5t146.5 -124.5t56.5 -206.5q0 -74 -45 -154t-135 -127v-4q61 -23 104 -59.5t70 -78.5t39 -85t12 -80q0 -121 -54 -211t-147.5 -150.5t-219.5 -90.5t-267 -30q-33 0 -102.5 4.5t-152.5 15.5t-169 31.5t-154 55.5z" />
<glyph unicode="&#x418;" horiz-adv-x="1941" d="M92 0v305h160v811h-160v303h787v-303h-134v-381l461 328v53h-131v303h774v-303h-157v-811h157v-305h-774v305h131v393l-461 -327v-66h134v-305h-787z" />
<glyph unicode="&#x419;" horiz-adv-x="1941" d="M92 0v305h160v811h-160v303h787v-303h-134v-381l461 328v53h-131v303h774v-303h-157v-811h157v-305h-774v305h131v393l-461 -327v-66h134v-305h-787zM516 1892l160 131q39 -53 81 -90t81 -60.5t73.5 -33.5t61.5 -10q18 0 44.5 2t67.5 18.5t96.5 53t133.5 108.5l119 -121 q-55 -92 -114.5 -153.5t-121 -98t-121 -52t-112.5 -15.5q-70 0 -133.5 24.5t-120 67.5t-105.5 101.5t-90 127.5z" />
<glyph unicode="&#x41a;" horiz-adv-x="1796" d="M92 0v305h158v811h-158v301h797v-301h-146v-811h146v-305h-797zM799 635v158l301 499q53 90 116.5 121t153.5 31q164 0 303 -76l-26 -264l-177 -10l-231 -338l287 -439l198 -18v-264q-35 -14 -75.5 -24.5t-79.5 -17.5t-74 -11.5t-55 -4.5q-61 -2 -108.5 3.5t-85.5 20.5 t-68.5 44t-59.5 72z" />
<glyph unicode="&#x41b;" horiz-adv-x="1800" d="M41 279q111 49 179.5 98t106.5 119.5t50 174t12 261.5v184h-188v303h1497v-303h-156v-811h156v-305h-780v305h129v811h-211v-102q0 -217 -21.5 -393.5t-92.5 -311.5t-202 -228t-350 -142z" />
<glyph unicode="&#x41c;" horiz-adv-x="2299" d="M92 0v305h160v811h-160v303h785l131 -289l147 -333h8l140 344l116 278h789v-303h-133v-811h133v-305h-725v305h110v524h-6l-110 -276l-113 -266h-395l-133 276l-119 266h-6v-524h127v-305h-746z" />
<glyph unicode="&#x41d;" horiz-adv-x="1896" d="M92 0v305h160v811h-160v303h785v-303h-129v-252h405v252h-129v303h780v-303h-155v-811h155v-305h-780v305h129v277h-405v-277h129v-305h-785z" />
<glyph unicode="&#x41e;" horiz-adv-x="1730" d="M102 717q0 160 48.5 295t143.5 232t237.5 152.5t332.5 55.5t332.5 -55.5t239 -152.5t144.5 -232t48 -295t-48 -296t-144.5 -235.5t-238.5 -155t-333 -55.5q-190 0 -332.5 55.5t-237.5 155t-143.5 235.5t-48.5 296zM629 717q0 -92 11 -168t39 -129t73 -83t112 -30 q68 0 112 29t71.5 82t39 129t11.5 170q0 88 -11.5 161.5t-39 127t-71.5 82t-112 28.5t-112.5 -31.5t-72.5 -86t-39 -127t-11 -154.5z" />
<glyph unicode="&#x41f;" horiz-adv-x="1896" d="M92 0v305h160v811h-160v303h1712v-303h-155v-811h155v-305h-780v305h129v811h-405v-811h129v-305h-785z" />
<glyph unicode="&#x420;" horiz-adv-x="1509" d="M92 0v305h150v811h-150v303h807q160 0 267.5 -36.5t172 -99t92 -148t27.5 -181.5t-33.5 -179t-100.5 -146.5t-165 -99t-225 -35.5h-195v-189h191v-305h-838zM739 782h56q78 0 108.5 48.5t30.5 113.5q0 172 -152 172h-43v-334z" />
<glyph unicode="&#x421;" horiz-adv-x="1460" d="M102 711q0 143 33 277t120 237.5t241.5 166t400.5 62.5q109 0 209 -14.5t201 -42.5v-512h-338v192q-18 4 -32.5 5t-31.5 1q-80 0 -133 -25.5t-85 -72.5t-45 -112.5t-13 -145.5q0 -123 25.5 -194.5t72.5 -108.5t113.5 -46t148.5 -9q23 0 62 3t85 8t92 12t81 14l69 -345 q-113 -43 -251 -64.5t-263 -21.5q-236 0 -384 63.5t-232 167t-115 235.5t-31 270z" />
<glyph unicode="&#x422;" horiz-adv-x="1554" d="M41 864v555h1472v-555h-329v252h-162v-811h166v-305h-828v305h170v811h-159v-252h-330z" />
<glyph unicode="&#x423;" horiz-adv-x="1638" d="M41 1114v305h690v-305h-108l122 -240l89 -184h12l86 201l100 223h-117v305h682v-305h-104l-432 -911q-66 -141 -163 -196.5t-232 -55.5q-80 0 -170 12t-189 41l72 307q66 -12 102.5 -14t63.5 -2q57 0 84 49l30 59h-112l-408 711h-98z" />
<glyph unicode="&#x424;" horiz-adv-x="2045" d="M82 729q0 131 52 241.5t145.5 191.5t222.5 129t282 57v73h484v-75q166 -8 295 -56.5t218 -128.5t136 -190.5t47 -241.5q0 -274 -176 -438t-520 -189v-102h-484v102q-168 8 -298 56.5t-220 129.5t-137 192.5t-47 248.5zM582 723q0 -115 47 -199t155 -104v610 q-98 -16 -150 -100t-52 -207zM1268 420q86 16 140 95t54 208t-48 210t-146 97v-610z" />
<glyph unicode="&#x425;" horiz-adv-x="1685" d="M31 0v307h102l354 459l-274 344h-172v309h866v-309h-82l146 -180l141 184h-86v305h608v-305h-104l-354 -426l323 -381h133v-307h-854v307h78l-156 201l-155 -201h82v-307h-596z" />
<glyph unicode="&#x426;" horiz-adv-x="1896" d="M92 0v303h160v811h-160v305h785v-305h-129v-811h405v811h-129v305h780v-305h-155v-811h239v-698h-354v395h-1442z" />
<glyph unicode="&#x427;" horiz-adv-x="1814" d="M41 1116v305h768v-305h-127v-121q0 -74 35 -109.5t90 -48t123.5 -5t136.5 19.5v264h-127v305h772v-305h-149v-811h149v-303h-803v303h158v215q-86 -12 -184.5 -18t-195.5 1t-188 31.5t-160 73.5t-111 127t-42 193v188h-145z" />
<glyph unicode="&#x428;" horiz-adv-x="2590" d="M92 0v303h160v811h-160v305h754v-305h-119v-811h324v811h-109v305h694v-305h-110v-811h342v811h-119v305h750v-305h-156v-811h156v-303h-2407z" />
<glyph unicode="&#x429;" horiz-adv-x="2590" d="M92 0v303h160v811h-160v305h754v-305h-119v-811h324v811h-109v305h694v-305h-110v-811h342v811h-119v305h750v-305h-156v-811h240v-698h-355v395h-2136z" />
<glyph unicode="&#x42a;" horiz-adv-x="1982" d="M41 881v538h1200v-303h-149l-2 -209h215q100 0 205.5 -16.5t191.5 -63.5t141 -136t55 -232q0 -238 -140 -348.5t-386 -110.5h-934v305h154v811h-217v-235h-334zM1090 305h139q66 0 104.5 43t38.5 115q0 66 -36 106.5t-107 40.5h-139v-305z" />
<glyph unicode="&#x42b;" horiz-adv-x="2523" d="M92 0v305h154v811h-154v303h803v-303h-152v-209h215q100 0 206 -16.5t192 -63.5t141 -136t55 -232q0 -238 -140 -348.5t-386 -110.5h-934zM743 305h140q66 0 104.5 43t38.5 115q0 66 -36 106.5t-107 40.5h-140v-305zM1630 0v305h156v811h-156v303h801v-303h-150v-811h150 v-305h-801z" />
<glyph unicode="&#x42c;" horiz-adv-x="1644" d="M102 0v305h154v811h-154v303h803v-303h-151v-209h215q100 0 205.5 -16.5t191.5 -63.5t141.5 -136t55.5 -232q0 -238 -140.5 -348.5t-386.5 -110.5h-934zM754 305h139q66 0 104.5 43t38.5 115q0 66 -35.5 106.5t-107.5 40.5h-139v-305z" />
<glyph unicode="&#x42d;" horiz-adv-x="1454" d="M94 61l70 342q35 -6 80 -13t88 -12t81 -8t60 -3q68 0 127 8t103.5 30.5t73 65.5t36.5 115l-340 -8v296l340 -6q0 104 -56.5 164t-191.5 60q-16 0 -40.5 -1t-43.5 -6v-149h-338v461q100 29 211 43t219 14q231 0 382 -58.5t238 -158.5t122 -231.5t35 -276.5 q0 -131 -37 -265t-124 -242.5t-233.5 -177.5t-363.5 -69q-125 0 -255 21.5t-243 64.5z" />
<glyph unicode="&#x42e;" horiz-adv-x="2551" d="M92 0v305h160v811h-160v303h785v-303h-129v-252h227q18 131 71.5 238.5t144.5 185.5t219 121t296 43q190 0 329.5 -55.5t231.5 -152.5t137 -232t45 -295t-45 -296t-137 -235.5t-231.5 -155t-329.5 -55.5q-170 0 -299 44t-220 124t-144.5 191.5t-69.5 247.5h-225v-277h129 v-305h-785zM1470 717q0 -92 11.5 -168t39 -129t72.5 -83t113 -30t112 29t71.5 82t38.5 129t11 170q0 88 -11 161.5t-38.5 127t-71.5 82t-112 28.5t-113 -31.5t-72.5 -86t-39 -127t-11.5 -154.5z" />
<glyph unicode="&#x42f;" horiz-adv-x="1679" d="M41 12v264l184 27l174 315q-106 53 -156 143.5t-50 186.5q0 80 23.5 164t82.5 152.5t161.5 111.5t260.5 43h866v-303h-141v-811h141v-305h-753v305h122v225h-129l-170 -346q-27 -55 -54.5 -95t-62 -67.5t-81.5 -41t-113 -13.5q-23 0 -59.5 2t-78.5 8.5t-86 14.5t-81 20z M713 963q0 -43 14 -72t39 -45.5t55.5 -22.5t61.5 -6h73v299h-90q-68 0 -110.5 -42.5t-42.5 -110.5z" />
<glyph unicode="&#x430;" horiz-adv-x="1331" d="M61 272q0 33 8.5 78t38 87t86 75t152.5 43l352 41v18q0 49 -27.5 74t-105.5 25q-37 0 -79 -3t-83 -8.5t-78.5 -12.5t-66.5 -15l-68 280q47 18 106.5 35t125 27t134.5 16t132 6q106 0 193.5 -18.5t148 -62.5t93 -115.5t32.5 -175.5v-365h100l15 -270q-31 -16 -72 -27.5 t-86 -20t-89 -12.5t-81 -4q-80 0 -140.5 28t-70.5 111l-4 3q-43 -49 -92 -77t-94 -42.5t-82 -17.5t-56 -3q-104 0 -170.5 31t-104.5 77t-52.5 98t-14.5 97zM557 334q0 -39 14.5 -63.5t55.5 -24.5q39 0 67 28v146l-84 -19q-35 -8 -44 -29.5t-9 -37.5z" />
<glyph unicode="&#x431;" horiz-adv-x="1390" d="M82 608q0 94 11 176t38 154q53 147 170 251.5t313 176.5q33 12 96.5 36.5t133 52.5t133 54.5t94.5 44.5l125 -256q-59 -45 -134 -78.5t-151.5 -63.5t-152.5 -59.5t-137.5 -67.5t-104.5 -86t-55 -116l6 -4q59 78 150.5 118t197.5 40q133 0 226.5 -36t152.5 -101.5 t87 -156.5t28 -200q0 -111 -39 -205t-116 -161.5t-191.5 -105.5t-268.5 -38q-172 0 -288.5 44.5t-188.5 125t-103.5 197.5t-31.5 264zM573 500q0 -92 25 -149.5t94 -57.5q70 0 94.5 56.5t24.5 150.5q0 86 -24.5 134t-94.5 48q-63 0 -91 -53.5t-28 -128.5z" />
<glyph unicode="&#x432;" horiz-adv-x="1361" d="M61 0v295h115v432h-115v285h830q188 0 278.5 -73t90.5 -208q0 -49 -25 -101t-76 -93q39 -18 63.5 -46t40 -60t21.5 -64.5t6 -61.5q0 -145 -108.5 -225t-300.5 -80h-820zM641 283h109q39 0 57 21.5t18 49.5q0 27 -16 50.5t-59 23.5h-109v-145zM641 608h96q33 0 48.5 19.5 t15.5 46.5q0 23 -14.5 43t-49.5 20h-96v-129z" />
<glyph unicode="&#x433;" horiz-adv-x="1251" d="M82 0v293h117v434h-117v285h1118v-434h-303v149h-209v-434h143v-293h-749z" />
<glyph unicode="&#x434;" horiz-adv-x="1523" d="M31 289l133 6q37 37 63.5 79t45 92t26.5 113.5t8 147.5h-135v285h1169l-2 -717l134 -6v-633h-361v344h-717v-344h-364v633zM616 295h236v432h-121q0 -86 -7 -150.5t-21.5 -114.5t-36 -90t-50.5 -77z" />
<glyph unicode="&#x435;" horiz-adv-x="1253" d="M82 504q0 111 30.5 208t99.5 169.5t178 115.5t265 43q147 0 246.5 -41t160 -111.5t85 -162.5t24.5 -195v-67h-606q0 -47 12.5 -78t37 -48.5t61.5 -23.5t84 -6q68 0 150.5 15.5t150.5 35.5l88 -276q-57 -31 -120.5 -51.5t-128 -32.5t-126 -17.5t-115.5 -5.5 q-178 0 -289.5 45.5t-176 119t-88 168.5t-23.5 196zM571 598h170q0 59 -16 95t-63 36q-49 0 -70 -38t-21 -93z" />
<glyph unicode="&#x436;" horiz-adv-x="2160" d="M72 16v240l116 25l168 249l-129 193l-96 8l-25 250q51 23 127 40t148 17q90 0 140 -30.5t91 -98.5l193 -356v-115l-219 -362q-35 -55 -89.5 -80t-158.5 -21q-23 0 -55.5 3.5t-69.5 8.5t-74 12t-67 17zM772 727v285h629v-285h-74v-434h72v-293h-619v293h64v434h-72z M1356 438v115l192 356q41 68 91.5 98.5t140.5 30.5q72 0 143.5 -17t122.5 -40l-25 -250l-96 -8l-121 -193l168 -249l117 -25v-240q-31 -10 -67.5 -17t-73.5 -12t-70 -8.5t-55 -3.5q-104 -4 -158.5 20.5t-89.5 80.5z" />
<glyph unicode="&#x437;" horiz-adv-x="1116" d="M47 45l74 279q86 -23 142 -30t108 -7q86 0 130 15t44 54q0 29 -19.5 41.5t-54.5 12.5h-96v221h80q35 0 53 18.5t18 42.5q0 59 -73 60q-29 0 -62 -9v-63h-303v287q111 35 221.5 54t237.5 19q129 0 220 -23.5t148.5 -63.5t84 -94t26.5 -114q0 -53 -25.5 -106t-109.5 -100 v-4q78 -31 115.5 -96.5t37.5 -123.5q0 -63 -28.5 -123.5t-93 -108.5t-168.5 -77t-254 -29q-156 0 -271.5 21.5t-181.5 46.5z" />
<glyph unicode="&#x438;" horiz-adv-x="1638" d="M61 727v285h609v-482h8l133 213l180 269h467l2 -699h117v-284q-72 -29 -150.5 -43.5t-150.5 -14.5q-88 0 -146.5 17.5t-94.5 51.5t-51 83t-15 113v221h-13l-147 -232l-156 -225h-473v727h-119z" />
<glyph unicode="&#x439;" horiz-adv-x="1638" d="M61 727v285h609v-482h8l133 213l180 269h467l2 -699h117v-284q-72 -29 -150.5 -43.5t-150.5 -14.5q-88 0 -146.5 17.5t-94.5 51.5t-51 83t-15 113v221h-13l-147 -232l-156 -225h-473v727h-119zM367 1407l159 131q39 -53 81 -90t81 -60.5t74 -34t61 -10.5q18 0 45 2.5 t68 18.5t96 53t133 109l119 -121q-55 -92 -114.5 -153.5t-121 -98.5t-121 -52.5t-112.5 -15.5q-70 0 -133.5 25t-119.5 68t-105 101t-90 128z" />
<glyph unicode="&#x43a;" horiz-adv-x="1499" d="M70 725v287h596v-719h77v-293h-661v293h94v432h-106zM694 451v114l203 344q41 68 91 98.5t140 30.5q72 0 143.5 -17t123.5 -40l-25 -250l-96 -8l-131 -180l168 -262l116 -25v-240q-31 -10 -67.5 -17t-73.5 -12t-69.5 -8.5t-55.5 -3.5q-104 -4 -158.5 20.5t-89.5 80.5z " />
<glyph unicode="&#x43b;" horiz-adv-x="1468" d="M20 236q68 39 112 78.5t69.5 83.5t36 95.5t10.5 112.5v121h-125v285h1173v-719h111v-293h-700v293h100v434h-137v-84q0 -127 -14.5 -235.5t-62.5 -198.5t-142.5 -163t-253.5 -130z" />
<glyph unicode="&#x43c;" horiz-adv-x="1837" d="M61 725v287h656l98 -174l103 -201h14l98 197l98 178h633v-287h-100v-412h115v-284q-72 -29 -144.5 -43.5t-144.5 -14.5q-88 0 -145.5 17.5t-91 51.5t-48 83t-14.5 113v227h-10l-70 -156l-66 -129h-231l-74 139l-69 154h-11v-471h-477v725h-119z" />
<glyph unicode="&#x43d;" horiz-adv-x="1564" d="M61 725v287h605v-371h233v371h487v-699h117v-284q-72 -29 -150.5 -43.5t-150.5 -14.5q-88 0 -146.5 17.5t-93 51.5t-49 83t-14.5 113v155h-233v-391h-492v725h-113z" />
<glyph unicode="&#x43e;" horiz-adv-x="1394" d="M82 510q0 117 38 214t114.5 165.5t192.5 107.5t269 39q154 0 268.5 -39t192.5 -107.5t117 -165.5t39 -214q0 -119 -39 -216t-117 -168t-192.5 -110t-268.5 -39t-269.5 39t-192 110t-114.5 168t-38 216zM578 510q0 -96 24.5 -156.5t93.5 -60.5q70 0 94.5 58.5t24.5 158.5 q0 92 -24.5 148.5t-94.5 56.5q-35 0 -57.5 -16.5t-36.5 -45t-19 -65.5t-5 -78z" />
<glyph unicode="&#x43f;" horiz-adv-x="1517" d="M66 723v287h1384v-287h-113v-410h138v-284q-72 -29 -161 -43.5t-161 -14.5q-88 0 -146.5 17.5t-93 51.5t-49 83t-14.5 113v487h-201v-723h-479v723h-104z" />
<glyph unicode="&#x440;" horiz-adv-x="1480" d="M61 -145h115v864h-113v293h570v-78l6 -2q37 31 81 50t86 31.5t78 16.5t56 4q133 0 221 -39t141.5 -106.5t75 -159.5t21.5 -199q0 -121 -24.5 -222t-80 -174t-146.5 -113.5t-222 -40.5q-20 0 -52 3t-69 9t-75 15t-68 22v-174h116v-291h-717v291zM664 342 q39 -18 69.5 -25.5t59.5 -7.5q14 0 35.5 6.5t42 28t34 63.5t13.5 113q0 70 -12.5 109t-32 57.5t-42 21.5t-43.5 3q-23 0 -56.5 -9.5t-67.5 -27.5v-332z" />
<glyph unicode="&#x441;" horiz-adv-x="1153" d="M82 502q0 102 25.5 198.5t92 172t183.5 120.5t299 45q86 0 179 -11t179 -40l-2 -371h-303v101q-49 4 -80.5 -9.5t-50 -40t-26 -64.5t-7.5 -83q0 -70 14.5 -110.5t41 -63t61.5 -30t78 -7.5q29 0 63.5 4t69.5 9.5t65.5 11.5t53.5 10l74 -291q-90 -41 -203 -60.5t-223 -19.5 q-180 0 -294 45t-178.5 120t-88 170t-23.5 194z" />
<glyph unicode="&#x442;" horiz-adv-x="1390" d="M41 578v434h1309v-434h-303v147h-107v-432h143v-293h-776v293h144v432h-107v-147h-303z" />
<glyph unicode="&#x443;" horiz-adv-x="1443" d="M31 690v324h469l205 -701h8l127 408h-82v293h645v-293h-86l-393 -979q-18 -43 -42 -81t-60 -65.5t-84 -43t-115 -15.5q-23 0 -69 3t-101.5 11.5t-114.5 21.5t-111 32l45 297l142 -11q37 0 61.5 3.5t43 14.5t32.5 32.5t29 58.5l18 53h-229l-238 637h-100z" />
<glyph unicode="&#x444;" horiz-adv-x="1863" d="M82 516q0 117 40 212t116.5 164t191.5 106.5t264 41.5v160h-119v283h594v-443q150 -2 264.5 -39.5t191.5 -106.5t117 -164t40 -212q0 -242 -150.5 -385t-462.5 -153v-134h121v-282h-715v282h119v136q-188 4 -308 57t-187.5 131t-92 170t-24.5 176zM537 512 q0 -123 45 -183.5t112 -64.5v488q-43 -4 -72.5 -27t-49 -56.5t-27.5 -74.5t-8 -82zM1169 264q72 4 114 63.5t42 172.5q0 43 -6 86t-23.5 78.5t-47 59.5t-79.5 28v-488z" />
<glyph unicode="&#x445;" horiz-adv-x="1437" d="M61 0v291h74l236 268l-164 150h-117v12h-2v291h670v-291l90 -84l86 84h-53v291h479l2 -291h-66l-245 -258l182 -172h125v-291h-752v291h60l-103 100l-94 -100h53v-291h-461z" />
<glyph unicode="&#x446;" horiz-adv-x="1617" d="M82 0v293h121v434h-117v285h604v-719h223v434h-98v285h694v-285h-106v-432l133 -2v-637h-362v344h-1092z" />
<glyph unicode="&#x447;" horiz-adv-x="1505" d="M51 727v287h604v-303q0 -59 31 -79t72 -20q18 0 36.5 3t34.5 8v391h490v-701h115v-286q-111 -37 -190 -46.5t-126 -9.5q-135 0 -212 69t-77 179v100q-66 -18 -130 -31.5t-142 -13.5q-76 0 -145.5 16.5t-124 57.5t-87 109.5t-32.5 173.5v96h-117z" />
<glyph unicode="&#x448;" horiz-adv-x="2207" d="M76 0v293h119v434h-119v285h608v-719h168v434h-57v285h606v-285h-70v-434h170v719h619v-285h-127v-434h127v-293h-2044z" />
<glyph unicode="&#x449;" horiz-adv-x="2213" d="M76 0v293h119v434h-119v285h602v-719h174v434h-57v285h606v-285h-70v-434h174v719h594v-285h-106v-434h133v-637h-363v344h-1687z" />
<glyph unicode="&#x44a;" horiz-adv-x="1699" d="M31 578v434h962v-342h248q57 0 128 -14.5t133.5 -51.5t104.5 -101.5t42 -164.5q0 -160 -105.5 -249t-279.5 -89h-758v727h-170v-149h-305zM993 276h90q47 0 65.5 23t18.5 51q0 29 -20.5 49.5t-63.5 20.5h-90v-144z" />
<glyph unicode="&#x44b;" horiz-adv-x="2115" d="M61 731v281h603v-342h247q57 0 128 -14.5t133.5 -51.5t104.5 -101.5t42 -164.5q0 -160 -105.5 -249t-279.5 -89h-758v731h-115zM664 276h90q47 0 65.5 23t18.5 51q0 29 -20.5 49.5t-63.5 20.5h-90v-144zM1329 721v293h588v-701h137v-284q-72 -29 -161 -43.5t-160 -14.5 q-88 0 -146.5 17.5t-93.5 51.5t-49 83t-14 113v485h-101z" />
<glyph unicode="&#x44c;" horiz-adv-x="1370" d="M61 731v281h603v-342h247q57 0 128 -14.5t133.5 -51.5t104.5 -101.5t42 -164.5q0 -160 -105.5 -249t-279.5 -89h-758v731h-115zM664 276h90q47 0 65.5 23t18.5 51q0 29 -20.5 49.5t-63.5 20.5h-90v-144z" />
<glyph unicode="&#x44d;" horiz-adv-x="1130" d="M51 45l68 285q45 -10 117.5 -20.5t132.5 -10.5q33 0 63.5 4t55 16.5t41 33t20.5 55.5l-187 -7v220l189 -7q-2 53 -24.5 84t-88.5 31h-16t-19 -2v-59h-301l-8 311q92 31 191.5 44t189.5 13q178 0 291 -44t175.5 -116.5t85 -168t22.5 -197.5q0 -98 -25 -194.5t-90.5 -173 t-181 -124t-297.5 -47.5q-104 0 -211 17.5t-193 56.5z" />
<glyph unicode="&#x44e;" horiz-adv-x="2027" d="M61 721v293h603v-385h108q33 184 178.5 296.5t401.5 112.5q147 0 258.5 -38.5t185.5 -107.5t112 -166t38 -214q0 -119 -38 -217t-112 -169t-185.5 -110t-258.5 -39q-262 0 -408.5 118t-175.5 313h-104v-408h-488v721h-115zM1243 512q0 -98 23.5 -158.5t85.5 -60.5 q63 0 85.5 58.5t22.5 160.5q0 92 -22.5 148.5t-85.5 56.5q-61 0 -85 -61.5t-24 -143.5z" />
<glyph unicode="&#x44f;" horiz-adv-x="1425" d="M51 2v258l158 23l90 125q-66 23 -118 88t-52 178q0 86 30.5 149.5t81 105.5t118 62.5t141.5 20.5l850 2v-287h-113v-414h117v-284q-72 -29 -151 -43.5t-150 -14.5q-88 0 -146.5 17.5t-93.5 51.5t-49 83t-14 113v106h-56l-110 -199q-25 -45 -50.5 -78.5t-58.5 -56t-76 -34 t-102 -11.5q-43 0 -110.5 8.5t-135.5 30.5zM602 662q0 -29 20.5 -49.5t63.5 -20.5h64v143h-64q-47 0 -65.5 -22.5t-18.5 -50.5z" />
<glyph unicode="&#x451;" horiz-adv-x="1253" d="M82 504q0 111 30.5 208t99.5 169.5t178 115.5t265 43q147 0 246.5 -41t160 -111.5t85 -162.5t24.5 -195v-67h-606q0 -47 12.5 -78t37 -48.5t61.5 -23.5t84 -6q68 0 150.5 15.5t150.5 35.5l88 -276q-57 -31 -120.5 -51.5t-128 -32.5t-126 -17.5t-115.5 -5.5 q-178 0 -289.5 45.5t-176 119t-88 168.5t-23.5 196zM225 1343q0 43 15.5 80t42 63.5t63.5 42t78 15.5t77 -15.5t63.5 -42t43 -63.5t15.5 -80q0 -41 -15.5 -77.5t-43 -63t-63.5 -42t-77 -15.5q-84 0 -141.5 57.5t-57.5 140.5zM571 598h170q0 59 -16 95t-63 36q-49 0 -70 -38 t-21 -93zM692 1343q0 43 15.5 80t43 63.5t63.5 42t79 15.5q84 0 140.5 -57.5t56.5 -143.5q0 -84 -56.5 -141t-140.5 -57q-86 0 -143.5 57.5t-57.5 140.5z" />
<glyph unicode="&#x452;" horiz-adv-x="1468" d="M41 1192v291h631v-359h264v-151h-264v-125q63 37 136 55.5t132 18.5q133 0 223 -37t144.5 -103.5t77 -161t22.5 -210.5q0 -102 -25.5 -199.5t-90 -172.5t-175 -120t-280.5 -45q-10 0 -22.5 1t-25.5 1v322q35 8 62 17t44 30.5t25.5 59.5t8.5 102q0 63 -13.5 100t-34 56.5 t-43 24.5t-40.5 5q-29 0 -59.5 -11.5t-63.5 -27.5l-2 -553h-490v973h-98v151h98v68h-141z" />
<glyph unicode="&#x453;" horiz-adv-x="1251" d="M82 0v293h117v434h-117v285h1118v-434h-303v149h-209v-434h143v-293h-749zM430 1343l387 375l207 -245l-461 -289z" />
<glyph unicode="&#x454;" horiz-adv-x="1153" d="M82 502q0 102 25.5 198.5t92 172t183.5 120.5t299 45q86 0 179 -11t179 -40l-2 -317h-303v59q-76 6 -111.5 -25.5t-45.5 -89.5l192 7v-220l-186 7q20 -70 68 -88.5t114 -18.5q29 0 63.5 4t69.5 9t65.5 11.5t53.5 10.5l74 -283q-90 -41 -203 -60.5t-223 -19.5 q-180 0 -294 45t-178.5 120t-88 170t-23.5 194z" />
<glyph unicode="&#x455;" horiz-adv-x="1236" d="M68 702q0 74 29.5 136.5t95 107.5t169 70.5t248.5 25.5q55 0 115.5 -5t121 -15t118 -26.5t106.5 -37.5v-292h-319v79q-41 10 -97 11q-39 0 -67.5 -11.5t-28.5 -39.5q0 -27 45 -42.5t111.5 -31t145.5 -36t145.5 -57t111.5 -95t45 -148.5q0 -74 -29.5 -133.5t-97 -100.5 t-176 -63.5t-264.5 -22.5q-115 0 -252 17.5t-268 70.5v306h327v-80q16 -10 60.5 -16.5t89.5 -6.5q43 0 74.5 8.5t31.5 30.5q0 27 -18 36t-68 21q-96 25 -187 52.5t-161.5 66.5t-113.5 92.5t-43 128.5z" />
<glyph unicode="&#x456;" horiz-adv-x="888" d="M82 721v293h588v-701h137v-284q-72 -29 -161 -43.5t-161 -14.5q-88 0 -146 17.5t-93 51.5t-49.5 83t-14.5 113v485h-100zM154 1372q0 55 20.5 103.5t55 84t82.5 56t104 20.5q53 0 101 -20.5t85 -56t58.5 -84t21.5 -103.5t-21.5 -103t-58.5 -84t-85 -56.5t-101 -20.5 q-55 0 -103.5 20.5t-83 56.5t-55 84t-20.5 103z" />
<glyph unicode="&#x457;" horiz-adv-x="888" d="M-29 1329q0 43 15.5 80t42 63.5t63.5 42t78 15.5t77 -15.5t63.5 -42t43 -63.5t15.5 -80q0 -41 -15.5 -78t-43 -63.5t-63.5 -42t-77 -15.5q-84 0 -141.5 57.5t-57.5 141.5zM82 721v293h588v-701h137v-284q-72 -29 -161 -43.5t-161 -14.5q-88 0 -146 17.5t-93 51.5 t-49.5 83t-14.5 113v485h-100zM438 1329q0 43 15.5 80t43 63.5t63.5 42t79 15.5q84 0 140.5 -57.5t56.5 -143.5q0 -84 -56.5 -141.5t-140.5 -57.5q-86 0 -143.5 57.5t-57.5 141.5z" />
<glyph unicode="&#x458;" horiz-adv-x="843" d="M-66 -207q88 51 139.5 89t77 83t32.5 105.5t7 154.5v496h-100v293h590v-789q0 -168 -37 -290.5t-114.5 -208.5t-197.5 -138.5t-286 -79.5zM164 1372q0 55 20.5 103.5t55 84t83 56t103.5 20.5q53 0 101 -20.5t85 -56t58.5 -84t21.5 -103.5t-21.5 -103t-58.5 -84t-85 -56.5 t-101 -20.5q-55 0 -103.5 20.5t-83 56.5t-55 84t-20.5 103z" />
<glyph unicode="&#x459;" horiz-adv-x="1955" d="M20 238q68 39 112 78.5t69.5 83.5t36 95.5t10.5 112.5v119h-125v285h1126v-342h248q57 0 128 -14.5t133.5 -51.5t104.5 -101.5t42 -164.5q0 -160 -105.5 -249t-279.5 -89h-758v729h-92v-88q0 -127 -14.5 -235.5t-62.5 -198.5t-142.5 -163t-253.5 -130zM1249 276h90 q47 0 65.5 23t18.5 51q0 29 -20.5 49.5t-63.5 20.5h-90v-144z" />
<glyph unicode="&#x45a;" horiz-adv-x="2070" d="M61 725v287h605v-402h211v121h-91v281h578v-363h248q57 0 127.5 -10t133 -44t104.5 -95.5t42 -161.5q0 -160 -105.5 -249t-279.5 -89h-757v383h-211v-383h-492v725h-113zM1364 276h104q70 0 70 64q0 59 -70 59h-104v-123z" />
<glyph unicode="&#x45b;" horiz-adv-x="1509" d="M41 1221v262h604v-330h285v-152h-285v-192q147 117 311 117q375 0 375 -379v-234h117v-284q-72 -29 -150.5 -43.5t-150.5 -14.5q-88 0 -146.5 17.5t-93.5 51.5t-49 83t-14 113v210q0 66 -28 92.5t-75 26.5q-20 0 -46.5 -11t-49.5 -34v-520h-489v1001h-99v152h99v68h-115z " />
<glyph unicode="&#x45c;" horiz-adv-x="1499" d="M70 725v287h596v-719h77v-293h-661v293h94v432h-106zM578 1282l387 375l206 -246l-460 -289zM694 451v114l203 344q41 68 91 98.5t140 30.5q72 0 143.5 -17t123.5 -40l-25 -250l-96 -8l-131 -180l168 -262l116 -25v-240q-31 -10 -67.5 -17t-73.5 -12t-69.5 -8.5 t-55.5 -3.5q-104 -4 -158.5 20.5t-89.5 80.5z" />
<glyph unicode="&#x45e;" horiz-adv-x="1443" d="M31 688v324h469l205 -701h8l127 408h-82v293h645v-293h-86l-393 -979q-18 -43 -42 -81t-60 -65.5t-84 -43t-115 -15.5q-23 0 -69 3t-101.5 11.5t-114.5 21.5t-111 32l45 297l142 -11q37 0 61.5 3.5t43 14.5t32.5 32.5t29 58.5l18 53h-229l-238 637h-100zM250 1464 l160 131q39 -53 80.5 -90t80.5 -60.5t74 -33.5t62 -10q18 0 44.5 2t67.5 18.5t96.5 53t133.5 108.5l118 -121q-55 -92 -114.5 -153.5t-121 -98t-121 -52t-112.5 -15.5q-70 0 -133 24.5t-119.5 67.5t-105.5 101.5t-90 127.5z" />
<glyph unicode="&#x45f;" horiz-adv-x="1617" d="M82 0v293h121v432h-117v287h604v-719h223v432h-98v287h694v-287h-106v-430l133 -2v-293h-547v-371h-362v371h-545z" />
<glyph unicode="&#x490;" horiz-adv-x="1519" d="M92 0v305h156v811h-156v303h1071v273h332v-576h-752v-811h185v-305h-836z" />
<glyph unicode="&#x491;" horiz-adv-x="1236" d="M82 0v293h117v434h-117v285h795v262h309v-547h-498v-434h143v-293h-749z" />
<glyph unicode="&#x4d9;" horiz-adv-x="1253" d="M82 485v68h606q0 94 -50 125t-144 31q-68 0 -151 -15.5t-150 -36.5l-89 277q57 31 121 51.5t128.5 32.5t126 17t114.5 5q178 0 289.5 -45t176 -118.5t88 -169t23.5 -195.5q0 -111 -30.5 -208t-99 -170t-178 -116t-265.5 -43q-147 0 -246.5 41t-160 112t-85 163t-24.5 194 zM512 418q0 -59 16.5 -95t63.5 -36q49 0 69.5 37.5t20.5 93.5h-170z" />
<glyph unicode="&#x2000;" horiz-adv-x="1058" />
<glyph unicode="&#x2001;" horiz-adv-x="2116" />
<glyph unicode="&#x2002;" horiz-adv-x="1058" />
<glyph unicode="&#x2003;" horiz-adv-x="2116" />
<glyph unicode="&#x2004;" horiz-adv-x="705" />
<glyph unicode="&#x2005;" horiz-adv-x="529" />
<glyph unicode="&#x2006;" horiz-adv-x="352" />
<glyph unicode="&#x2007;" horiz-adv-x="352" />
<glyph unicode="&#x2008;" horiz-adv-x="264" />
<glyph unicode="&#x2009;" horiz-adv-x="423" />
<glyph unicode="&#x200a;" horiz-adv-x="117" />
<glyph unicode="&#x2010;" horiz-adv-x="894" d="M139 412v309h617v-309h-617z" />
<glyph unicode="&#x2011;" horiz-adv-x="894" d="M139 412v309h617v-309h-617z" />
<glyph unicode="&#x2012;" horiz-adv-x="894" d="M139 412v309h617v-309h-617z" />
<glyph unicode="&#x2013;" horiz-adv-x="1024" d="M109 397v267h804v-267h-804z" />
<glyph unicode="&#x2014;" horiz-adv-x="2048" d="M154 397v265h1740v-265h-1740z" />
<glyph unicode="&#x2018;" horiz-adv-x="663" d="M102 1040q0 78 30 155t79 142.5t111.5 118.5t128.5 84l114 -154q-63 -49 -100 -96t-47 -116q78 -10 112.5 -59.5t34.5 -125.5q0 -43 -17.5 -81t-48 -66.5t-73.5 -46t-94 -17.5q-66 0 -109 23.5t-70.5 60.5t-39 84t-11.5 94z" />
<glyph unicode="&#x2019;" horiz-adv-x="663" d="M102 932q63 49 100.5 96t47.5 117q-78 10 -113 59t-35 125q0 43 16.5 81t47.5 66.5t74 46t96 17.5q63 0 107 -23.5t72 -60.5t39 -84t11 -92q0 -80 -30.5 -155.5t-79.5 -142.5t-111.5 -119t-126.5 -83z" />
<glyph unicode="&#x201a;" horiz-adv-x="714" d="M113 -170q63 49 100 96t47 117q-78 10 -112.5 59t-34.5 125q0 43 16 81t47 66.5t74 46t96 17.5q63 0 108.5 -23.5t72 -60.5t39 -84t12.5 -94q0 -78 -31 -154.5t-80 -142t-111.5 -119t-126.5 -84.5z" />
<glyph unicode="&#x201c;" horiz-adv-x="1132" d="M84 1040q0 78 30.5 155t80 142.5t112 118.5t127.5 84l115 -154q-63 -49 -100 -96t-48 -116q78 -10 113 -59.5t35 -125.5q0 -43 -17.5 -81t-48 -66.5t-73.5 -46t-95 -17.5q-66 0 -109.5 23.5t-70 60.5t-39 84t-12.5 94zM584 1040q0 78 30.5 155t79.5 142.5t111.5 118.5 t126.5 84l117 -154q-63 -49 -100.5 -96t-47.5 -116q78 -10 113 -59.5t35 -125.5q0 -43 -17.5 -81t-48.5 -66.5t-74 -46t-94 -17.5q-66 0 -109.5 23.5t-70.5 60.5t-39 84t-12 94z" />
<glyph unicode="&#x201d;" horiz-adv-x="1132" d="M86 932q66 49 101.5 96t45.5 117q-78 10 -112.5 59t-34.5 125q0 43 17.5 81t48 66.5t73.5 46t97 17.5q63 0 107 -23.5t70.5 -60.5t39 -84t12.5 -92q0 -80 -31 -155.5t-80 -142.5t-111.5 -119t-125.5 -83zM586 932q66 49 101.5 96t45.5 117q-78 10 -112.5 59t-34.5 125 q0 43 17.5 81t48 66.5t73.5 46t96 17.5q63 0 107.5 -23.5t71 -60.5t39 -84t12.5 -92q0 -80 -31 -155.5t-80 -142.5t-111.5 -119t-126.5 -83z" />
<glyph unicode="&#x201e;" horiz-adv-x="1253" d="M113 -170q63 49 100 96t47 117q-78 10 -112.5 59t-34.5 125q0 43 16 81t47 66.5t74 46t96 17.5q63 0 108.5 -23.5t72 -60.5t39 -84t12.5 -94q0 -78 -31 -154.5t-80 -142t-111.5 -119t-126.5 -84.5zM651 -170q63 49 100 96t48 117q-78 10 -113 59t-35 125q0 43 16.5 81 t47 66.5t73.5 46t97 17.5q63 0 108 -23.5t72 -60.5t39 -84t12 -94q0 -78 -30.5 -154.5t-80 -142t-112 -119t-125.5 -84.5z" />
<glyph unicode="&#x2020;" horiz-adv-x="1097" d="M86 754v293h268v391h379v-391h283v-293h-283v-926h-379v926h-268z" />
<glyph unicode="&#x2021;" horiz-adv-x="1097" d="M86 166v293h268v295h-268v293h268v391h379v-391h283v-293h-283v-295h283v-293h-283v-338h-379v338h-268z" />
<glyph unicode="&#x2022;" horiz-adv-x="1038" d="M184 543q0 70 27 130t72 105t106.5 72t130.5 27q70 0 130.5 -27t105.5 -72t71.5 -105t26.5 -130t-26.5 -131.5t-71.5 -106.5t-105.5 -71.5t-130.5 -26.5t-131 26.5t-106 71.5t-72 106.5t-27 131.5z" />
<glyph unicode="&#x2026;" horiz-adv-x="1955" d="M121 213q0 47 18.5 89t50 73t73.5 49t89 18t89 -18t73 -49t49.5 -73t18.5 -89q0 -49 -18.5 -91t-49.5 -73t-73 -48t-89 -17t-89 17t-73.5 48t-50 73t-18.5 91zM748 213q0 47 18 89t49 73t73 49t89 18t89 -18t73.5 -49t50 -73t18.5 -89q0 -49 -18.5 -91t-50 -73t-73.5 -48 t-89 -17t-89 17t-73 48t-49 73t-18 91zM1372 213q0 47 18.5 89t50.5 73t73.5 49t89.5 18q47 0 89 -18t72.5 -49t49 -73t18.5 -89q0 -49 -18.5 -91t-49 -73t-72.5 -48t-89 -17t-89 17t-74 48t-50.5 73t-18.5 91z" />
<glyph unicode="&#x202f;" horiz-adv-x="423" />
<glyph unicode="&#x2030;" horiz-adv-x="2963" d="M20 961q0 92 23 169.5t73 134t130 88t192 31.5q113 0 192 -31.5t129 -88t72.5 -134t22.5 -169.5t-22.5 -170t-72.5 -134.5t-129 -89t-192 -32.5t-192.5 32.5t-129.5 89t-73 134t-23 170.5zM348 961q0 -92 17.5 -145.5t72.5 -53.5q53 0 71.5 52.5t18.5 146.5q0 90 -18 144 t-72 54q-55 0 -72.5 -57.5t-17.5 -140.5zM551 -37l719 1512h266l-721 -1512h-264zM1198 412q0 92 22.5 169.5t72.5 134t130 88.5t193 32t191.5 -32t129 -88.5t73 -134t22.5 -169.5t-22.5 -170t-73 -134.5t-129 -89t-191.5 -32.5t-193 32.5t-130 89t-72.5 134t-22.5 170.5z M1526 412q0 -92 17.5 -145.5t72.5 -53.5q53 0 71.5 52.5t18.5 146.5q0 90 -18.5 144t-71.5 54q-55 0 -72.5 -57t-17.5 -141zM2093 412q0 92 22.5 169.5t72.5 134t130 88.5t193 32t191.5 -32t129 -88.5t73 -134t22.5 -169.5t-22.5 -170t-73 -134.5t-129.5 -89t-191 -32.5 q-113 0 -193 32.5t-130 89t-72.5 134t-22.5 170.5zM2421 412q0 -92 17.5 -145.5t72.5 -53.5q53 0 71.5 52.5t18.5 146.5q0 90 -18.5 144t-71.5 54q-55 0 -72.5 -57t-17.5 -141z" />
<glyph unicode="&#x2039;" horiz-adv-x="817" d="M90 393v76l406 434l194 -129l-223 -342l217 -334l-199 -139z" />
<glyph unicode="&#x203a;" horiz-adv-x="817" d="M92 774l195 129l405 -434v-76l-395 -434l-199 139l217 334z" />
<glyph unicode="&#x2044;" horiz-adv-x="219" d="M-346 -37l719 1512h266l-721 -1512h-264z" />
<glyph unicode="&#x205f;" horiz-adv-x="529" />
<glyph unicode="&#x20ac;" d="M49 516v131h905v-131h-311q29 -98 100.5 -135t159.5 -37q12 0 23.5 1t23.5 1v90h305v-405q-92 -27 -208.5 -41.5t-215.5 -14.5q-176 0 -297.5 44t-199.5 119t-120 172.5t-56 205.5h-109zM49 723v139h107q14 113 56 211t125 172t211 117t314 43q98 0 188.5 -14.5 t182.5 -40.5v-404h-305v105q-16 4 -29.5 4h-30.5q-109 0 -163 -49.5t-72 -143.5h321v-139h-905z" />
<glyph unicode="&#x2122;" horiz-adv-x="2084" d="M53 1116v303h803v-303h-180v137h-88v-440h90v-166h-451v166h92v440h-88v-137h-178zM885 649v164h86v442h-86v164h426l71 -155l82 -183h2l76 187l64 151h430v-164h-72v-442h72v-164h-396v164h62v285h-4l-62 -148l-59 -147h-217l-72 151l-63 144h-2v-285h67v-164h-405z" />
<glyph unicode="&#x2202;" horiz-adv-x="1085" d="M20 469q0 111 35 201t96.5 153.5t143.5 98t176 34.5q106 0 211 -53q-16 88 -53 148.5t-88.5 97.5t-115 53.5t-134.5 16.5q-49 0 -101 -7v246q84 14 166 15q164 0 286 -56.5t202 -156t118.5 -237.5t38.5 -304q0 -184 -38.5 -322.5t-108.5 -230.5t-166 -139t-209 -47 q-98 0 -182 31.5t-145.5 93t-96.5 152.5t-35 212zM322 473q0 -123 47.5 -176t115.5 -53q51 0 91 31.5t67 84t41 116t14 128.5q-61 59 -116.5 78.5t-98.5 19.5q-37 0 -66.5 -20t-51 -53t-32.5 -74t-11 -82z" />
<glyph unicode="&#x220f;" horiz-adv-x="1896" d="M92 39h160v1077h-160v303h1712v-303h-155v-1077h155v-305h-780v305h129v1077h-405v-1077h129v-305h-785v305z" />
<glyph unicode="&#x2211;" horiz-adv-x="1536" d="M51 -12l379 590l-356 600v241h1353v-555h-327v252h-391l280 -504v-69l-307 -504h440v242h332v-547h-1403v254z" />
<glyph unicode="&#x221a;" horiz-adv-x="1169" d="M176 688l328 176l139 -454q80 274 162 560.5t158 551.5h290l-485 -1624h-254l-180 575q-20 -10 -42 -21.5t-30 -15.5z" />
<glyph unicode="&#x221e;" horiz-adv-x="1669" d="M68 588q0 76 28.5 145.5t81.5 121.5t128 83t167 31q49 0 100.5 -14.5t98.5 -37t90 -52t78 -60.5q66 76 152.5 120t211.5 44q86 0 160 -29t128 -79t84 -120.5t30 -152.5q0 -76 -30 -144.5t-84 -122t-131 -85t-171 -31.5q-106 0 -194.5 53t-155.5 125q-78 -78 -163 -128 t-210 -50q-84 0 -157.5 28.5t-127 78.5t-84 121t-30.5 155zM379 588q0 -53 28.5 -91t69.5 -38q47 0 92 35.5t88 89.5q-41 53 -85 91t-91 38q-41 0 -71.5 -36t-30.5 -89zM1014 588q49 -53 94 -91t86 -38t70.5 38t29.5 91q0 55 -28.5 90t-69.5 35q-39 0 -87 -35t-95 -90z" />
<glyph unicode="&#x222b;" horiz-adv-x="690" d="M-57 -319l39 237q33 -4 63.5 -8t58.5 -4q59 0 93 26.5t34 106.5q-2 150 -10 287t-17 274t-16.5 276.5t-7.5 290.5q0 170 90 273.5t265 103.5q49 0 99 -5t122 -21l-33 -238q-29 4 -57.5 7t-55.5 3q-74 0 -102.5 -31.5t-28.5 -123.5q0 -154 8.5 -286t18.5 -262t18 -266.5 t8 -297.5q0 -84 -28.5 -154t-77.5 -119t-115.5 -75.5t-142.5 -26.5q-88 0 -225 33z" />
<glyph unicode="&#x2248;" d="M154 360q51 143 117.5 194.5t146.5 51.5q55 0 112.5 -11t114.5 -25.5t112.5 -26t106.5 -11.5l113 84l123 -92q-43 -131 -104.5 -192.5t-153.5 -61.5q-61 0 -125 12.5t-124.5 27t-112.5 26.5t-89 12l-110 -80zM154 741q51 143 117.5 194.5t146.5 51.5q55 0 112.5 -11 t114.5 -25.5t112.5 -26t106.5 -11.5l113 84l123 -92q-43 -131 -104.5 -192.5t-153.5 -61.5q-61 0 -125 12.5t-124.5 27t-112.5 26.5t-89 12l-110 -80z" />
<glyph unicode="&#x2260;" d="M207 94l155 205h-155v242h338l108 141h-446v244h631l120 159h201l-121 -159h111v-244h-293l-104 -141h397v-242h-578l-153 -205h-211z" />
<glyph unicode="&#x2264;" d="M72 -2v258h1071v-258h-1071zM76 725v215l1071 381v-313l-668 -174l668 -216v-309z" />
<glyph unicode="&#x2265;" d="M139 -2v258h1078v-258h-1078zM139 309v309l668 216q-168 45 -334 87t-334 87v313l1071 -381v-215z" />
<glyph unicode="&#x25ca;" d="M82 813l496 819h202l500 -819l-500 -815h-202zM371 813l309 -477l305 477l-305 479z" />
<glyph unicode="&#x25fc;" horiz-adv-x="1013" d="M0 0v1014h1014v-1014h-1014z" />
</font>
</defs>
</svg>
